<svg width="620" height="460" fill="none" xmlns="http://www.w3.org/2000/svg"><path d="M84.842 216.991H4v-.298c.209-6.829 6.053-12.196 13.33-12.196 2.057 0 4.115.447 5.964 1.342.06-5.249 2.743-10.02 7.067-12.525 3.22-1.878 7.067-2.355 10.765-1.371 4.025 1.073 7.455 3.727 9.602 7.484 1.192 2.088 1.908 4.324 2.117 6.62 3.43-1.52 7.485-2.296 11.72-2.296 11.211 0 20.306 5.636 20.306 12.584 0 .149 0 .269-.03.418v.238zm-80.275-.536h79.738v-.09c0-6.62-8.857-12.017-19.74-12.017-4.295 0-8.41.835-11.84 2.415l-.357.179-.03-.417c-.15-2.386-.865-4.652-2.087-6.799-2.088-3.609-5.368-6.173-9.244-7.217-3.579-.954-7.247-.507-10.348 1.312-4.294 2.505-6.888 7.276-6.799 12.495v.477l-.417-.209a13.576 13.576 0 00-6.114-1.461c-6.858-.06-12.375 4.92-12.762 11.332z" fill="#9192FF"/><path d="M346.391 185.077c0 7.789 7.736 14.137 17.293 14.137h191.934c9.528 0 17.294-6.323 17.294-14.137v-95.47H346.391v95.47z" fill="#fff"/><path d="M555.285 200.258H363.987c-9.706 0-17.596-6.497-17.596-14.49v-96.16h226.521v96.16c-.03 7.993-7.92 14.49-17.627 14.49zM347.135 90.22v95.548c0 7.65 7.563 13.877 16.852 13.877h191.328c9.29 0 16.852-6.227 16.852-13.877V90.221H347.135z" fill="#9192FF"/><path d="M555.608 45.11H364.016c-9.513 0-17.266 7.724-17.266 17.266v27.911h226.124V62.376c0-9.542-7.723-17.266-17.266-17.266z" fill="#fff"/><path d="M573.231 90.644h-226.84v-28.3c0-9.72 7.902-17.623 17.623-17.623h191.623c9.721 0 17.623 7.903 17.623 17.624v28.299h-.029zm-226.095-.746h225.379V62.345c0-9.304-7.574-16.878-16.878-16.878H364.014c-9.303 0-16.878 7.574-16.878 16.878v27.553z" fill="#9192FF"/><path d="M378.78 69.582a9.454 9.454 0 10-18.53-3.76 9.454 9.454 0 0018.53 3.76z" fill="#D1D1FF"/><path d="M404.056 74.379a9.452 9.452 0 000-13.369 9.454 9.454 0 100 13.368z" fill="#fff"/><path d="M397.383 77.523c-5.427 0-9.841-4.413-9.841-9.84s4.414-9.84 9.841-9.84 9.84 4.413 9.84 9.84-4.413 9.84-9.84 9.84zm0-18.905c-5.01 0-9.095 4.085-9.095 9.095 0 5.01 4.085 9.095 9.095 9.095 5.01 0 9.095-4.086 9.095-9.095 0-5.04-4.085-9.095-9.095-9.095z" fill="#9192FF"/><path d="M469.399 76.72h-37.662c-4.98 0-9.036-4.056-9.036-9.036 0-4.98 4.056-9.036 9.036-9.036h37.662c4.98 0 9.036 4.056 9.036 9.036-.03 5.01-4.056 9.035-9.036 9.035z" fill="#fff"/><path d="M469.398 77.106h-37.663a9.392 9.392 0 01-9.393-9.394 9.392 9.392 0 019.393-9.393h37.663a9.392 9.392 0 019.393 9.393c0 5.16-4.234 9.394-9.393 9.394zm-37.663-18.071c-4.771 0-8.647 3.876-8.647 8.648 0 4.77 3.876 8.647 8.647 8.647h37.663c4.771 0 8.648-3.876 8.648-8.647 0-4.772-3.877-8.648-8.648-8.648h-37.663z" fill="#9192FF"/><path d="M143.14 195.819a35.19 35.19 0 00-13.002-18.668l-2.505-1.849 2.147 44.194 16.52-12.793-3.16-10.884z" fill="#8BA9F4"/><path d="M196.219 249.256l-3.668-7.187c-.924-1.819-2.594-3.161-4.562-3.727l-10.795-2.982-27.792-17.743-3.131-10.884-16.521 12.792.15 3.102a16.345 16.345 0 009.84 14.224l26.987 11.629 12.823.299c4.145 1.431 5.546 4.98 8.111 3.697.954-.477-2.774-6.62-2.774-6.62l6.203 6.829 5.129-3.429z" fill="#FFBC96"/><path d="M149.101 217.335l-3.629 4.274.66.56 3.628-4.274-.659-.56z" fill="#D28572"/><path d="M147.911 267.148l20.218-1.789c13.15-1.163 24.601 9.452 25.227 23.438l4.563 99.539-27.882.864-22.126-122.052z" fill="#7E6064"/><path d="M172.274 388.216l.864 27.494h41.331l-20.397-16.937-1.282-13.27-20.516 2.713z" fill="#64474B"/><path d="M193.569 398.088l-8.693 6.698 1.037 1.346 8.693-6.697-1.037-1.347z" fill="#fff"/><path d="M162.88 388.216l.865 27.494h41.3l-20.367-16.937-1.282-13.27-20.516 2.713z" fill="#7E6064"/><path d="M184.15 398.101l-8.694 6.697 1.038 1.346 8.693-6.697-1.037-1.346z" fill="#fff"/><path d="M193.654 390.93h-34.203l-24.363-74.967-3.399-10.497-48.726-.209c-3.012-.03-5.904-1.431-8.32-3.489-5.188-4.353-7.574-11.242-6.62-17.951l4.264-30.506 72.373 9.423a32.526 32.526 0 0127.643 25.615l21.351 102.581z" fill="#64474B"/><path d="M141.738 305.436l-6.65 10.497-3.4-10.497h10.05z" fill="#1B1B43"/><path d="M132.762 247.794c-.358 1.402-.716 2.833-1.103 4.235l-2.565 10.466-33.756-1.401-24.303-1.014c-6.441-.268-11.123-6.262-9.81-12.554l11.33-54.541c1.462-9.274 8.977-16.401 18.34-17.385l27.733-2.862 8.975 2.564c8.767 4.712 8.767 13.21 9.185 18.817 1.849 24.422-.418 39.213-4.026 53.675z" fill="#8BA9F4"/><path opacity=".3" d="M109.89 246.035c-.358 1.401 22.186 4.562 21.799 5.993l-2.565 10.467-33.756-1.401c-11.809-8.887-16.222-28.27-20.516-52.513l35.038 37.454z" fill="#1B1B43"/><path d="M103.181 188.512c1.491 1.581 3.161 2.982 5.039 3.996 1.879 1.044 3.907 1.79 6.024 2.028 2.087.268 4.294.09 6.143-.895 1.879-.924 3.071-2.892 3.31-5.039l.328.03c0 1.103-.298 2.236-.835 3.25-.567 1.014-1.431 1.849-2.415 2.416-1.998 1.163-4.384 1.371-6.62 1.103-2.237-.298-4.384-1.103-6.292-2.237-1.909-1.133-3.579-2.654-4.951-4.413l.269-.239zm34.382 33.339l-.626-.06c.626-8.588 0-19.174-1.849-31.4l.626-.089c1.849 12.285 2.475 22.901 1.849 31.549zm57.374 30.327h-31.758v6.262h31.758v-6.262z" fill="#1B1B43"/><path d="M249.925 258.44H186.11l29.343-56.121h63.814l-29.342 56.121z" fill="#8BA9F4"/><path d="M110.218 127.859c-7.484-7.365-21.59-4.264-21.38 8.111-15.387 4.056-16.252 20.934-10.05 29.611l5.338.418 1.163-6.292 3.101 6.411 14.97.954 6.858-39.213z" fill="#1B1B43"/><path d="M122.713 155.442V179c0 .209 0 .418-.03.626-.358 4.861-5.069 8.26-9.87 7.038-7.068-1.819-11.988-8.231-11.928-15.536l.119-15.686h21.709z" fill="#FFBC96"/><path d="M122.713 165.611v13.359c0 .209 0 .418-.03.626-6.292-1.043-13.568-8.319-15.357-16.252l15.387 2.267z" fill="#1B1B43"/><path d="M135.446 157.172a44.998 44.998 0 01-1.342 5.606c-1.878 5.964-5.248 10.944-11.301 10.079-14.195-2.028-22.127-16.669-22.127-16.669l9.721-11.123 6.531-8.767 19.562 8.439s.089 5.994-1.044 12.435z" fill="#FFBC96"/><path d="M104.91 152.43c6.233-.209 11.064-3.369 13.121-12.405 0 0 14.522 12.524 21.649 5.845 5.964-5.606-4.145-18.518-20.903-20.039-6.113-.567-12.197 1.342-16.968 5.189-8.11 6.5-8.886 21.649-1.312 26.867l4.413-5.457z" fill="#1B1B43"/><path d="M97.605 136.626c-.418-1.461-.09-3.101.566-4.503.656-1.401 1.7-2.654 2.922-3.608a10.563 10.563 0 014.175-1.968c1.521-.298 3.131-.268 4.503.358-1.431.477-2.684.954-3.877 1.55a19.815 19.815 0 00-3.28 2.088c-1.014.775-1.938 1.67-2.803 2.654-.805.984-1.55 2.057-2.206 3.429z" fill="#fff"/><path d="M105.214 158.902c2.492-.997 3.535-4.248 2.329-7.26-1.205-3.012-4.203-4.645-6.695-3.647-2.493.997-3.536 4.248-2.33 7.26 1.206 3.012 4.203 4.645 6.696 3.647z" fill="#FFBC96"/><path d="M103.032 156.665c.119-1.044.119-2.028-.179-2.922-.298-.925-.865-1.7-1.551-2.505l.209-.269c.954.507 1.789 1.402 2.147 2.505.358 1.104.209 2.326-.298 3.28l-.328-.089zm23.349-3.161c0 .895-.656 1.61-1.432 1.61-.775 0-1.431-.715-1.431-1.61 0-.894.656-1.61 1.431-1.61.776 0 1.432.745 1.432 1.61zm7.574 1.282c-.089.776-.745 1.342-1.461 1.253-.716-.09-1.193-.776-1.103-1.581.089-.775.745-1.342 1.461-1.252.715.089 1.193.775 1.103 1.58zm-7.664-5.278c.06.745-1.133.805-2.892.865-1.76.059-2.982.596-2.982.119s1.282-1.7 3.012-1.968c1.819-.298 2.803.089 2.862.984zm5.636.716c-.119.745.746.924 2.058 1.163 1.312.238 2.147.894 2.207.417.059-.477-.776-1.789-2.028-2.266-1.282-.477-2.088-.179-2.237.686zm-2.087 5.874c.328.418.716.775 1.074 1.133l.566.537c.209.179.418.388.597.686.089.149.178.358.178.566.03.209-.059.448-.149.597a2.127 2.127 0 01-.686.686c-.506.328-1.073.477-1.61.566l-.119-.298c.447-.298.924-.566 1.282-.865.179-.149.328-.328.388-.477.059-.149.059-.179-.03-.358-.179-.298-.686-.715-.984-1.163a4.431 4.431 0 01-.835-1.461l.328-.149zm-7.246 5.278c.864.985 1.789 1.909 2.862 2.505 1.074.597 2.326.776 3.638.627l.09.328a4.78 4.78 0 01-2.058.387 4.563 4.563 0 01-2.057-.596c-1.253-.716-2.177-1.819-2.744-3.072l.269-.179z" fill="#1B1B43"/><path opacity=".2" d="M117.465 160.452a3.519 3.519 0 10-.002-7.038 3.519 3.519 0 00.002 7.038zm17.981-3.28a45.04 45.04 0 01-1.342 5.606c-.536-.626-.894-1.432-.894-2.326a3.633 3.633 0 012.236-3.28z" fill="#FE5B52"/><path d="M95.22 198.89l-20.368 9.691 6.382 15.149 21.351-9.871-7.366-14.969z" fill="#8BA9F4"/><path d="M170.663 251.403a13.592 13.592 0 01-.924-.478l.209-.387s.387.179.924.477l-.209.388z" fill="#C5C5FF"/><path d="M179.132 253.52c-.656 1.312-5.696-1.014-8.051-2.147 1.819 1.014 4.95 2.982 3.578 4.085-1.133.865-3.608-.984-11.719-4.354 1.223.567 8.499 4.026 6.65 5.338-1.998 1.431-10.527-1.7-10.527-1.7l-7.425 3.996h-8.558l-30.744.209c-1.939 0-3.847-.239-5.696-.716-3.638-.924-7.097-2.743-9.99-5.188a24.468 24.468 0 01-4.741-5.338 27.808 27.808 0 01-2.535-4.742l-8.14-19.233 21.351-9.871 11.152 22.634 36.768 7.991 10.258-2.564c2.207-.567 5.338.387 7.276 1.55 4.712 2.893 11.689 8.797 11.093 10.05z" fill="#FFBC96"/><path opacity=".2" d="M107.177 255.011a9.448 9.448 0 01-.567 3.191c-3.638-.925-7.097-2.744-9.99-5.189a24.467 24.467 0 01-4.74-5.338 9.31 9.31 0 015.903-2.087c5.189.03 9.394 4.234 9.394 9.423z" fill="#FE5B52"/><path d="M150.445 244.306c2.535-.835 5.129-1.581 7.754-2.118 1.312-.268 2.654-.507 4.025-.566.686-.03 1.372-.03 2.058.059.358.06.686.15 1.014.239.328.119.656.239.954.358 2.505 1.133 4.682 2.743 6.799 4.413 2.117 1.67 4.085 3.489 6.023 5.368l.09.089.03.12c.059.417.03.775-.209 1.163-.149.149-.268.328-.477.417-.179.119-.358.149-.537.179-.716.119-1.342-.03-1.908-.179-1.193-.328-2.237-.865-3.31-1.402-1.044-.566-2.088-1.133-3.072-1.759-1.014-.596-1.968-1.282-2.982-1.908l.448-.716c1.759 1.044 3.459 2.117 5.069 3.37.805.626 1.61 1.252 2.296 2.117.179.209.328.447.447.745.06.149.09.328.09.507-.03.209-.09.418-.209.597-.268.298-.596.417-.865.477-.298.089-.536.089-.835.119h-.089l-.09-.03-9.274-3.876.269-.656c1.461.685 2.892 1.401 4.234 2.296.656.477 1.372.894 1.849 1.729.119.209.179.537.089.805a1.104 1.104 0 01-.536.567c-.418.209-.865.268-1.283.298-1.669.03-3.22-.358-4.771-.745a58.106 58.106 0 01-4.562-1.432l.119-.328c1.491.507 3.012.955 4.563 1.312 1.52.358 3.101.686 4.622.597.715-.03 1.58-.358 1.252-.835-.328-.567-1.014-1.044-1.64-1.461-1.312-.835-2.743-1.551-4.175-2.177l.269-.656 9.303 3.817-.179-.03c.239-.03.478-.03.657-.09a.891.891 0 00.447-.208c.119-.06-.06-.507-.328-.865-.597-.716-1.372-1.342-2.147-1.938-1.581-1.193-3.28-2.267-5.01-3.281l.447-.715c.984.626 1.939 1.312 2.952 1.908.985.626 1.998 1.193 3.012 1.76 1.044.507 2.088 1.043 3.161 1.341.537.15 1.104.269 1.551.179l.179-.029c.059 0 .089-.06.119-.06.09-.03.119-.119.209-.149.089-.119.119-.358.089-.537l.12.209a77.26 77.26 0 00-5.935-5.338c-2.057-1.67-4.204-3.31-6.56-4.413l-.895-.358a10.46 10.46 0 01-.924-.239c-.626-.089-1.282-.089-1.938-.059-1.312.059-2.624.238-3.937.477-2.624.477-5.218 1.163-7.753 1.938l-.179-.417z" fill="#D28572"/><path d="M81.353 224.028l-.268-.596 21.082-9.722-8.767-20.546.567-.268 9.035 21.142-21.65 9.99zm3.042 89.967H83.26v96.319h1.134v-96.319z" fill="#1B1B43"/><path d="M110.755 318.259H56.901a6.605 6.605 0 01-6.62-6.62 6.605 6.605 0 016.62-6.62h53.854a6.605 6.605 0 016.62 6.62c0 3.668-2.982 6.62-6.62 6.62zm-4.294 98.317H61.165v-1.103c0-5.487 4.473-9.96 9.96-9.96H96.5c5.487 0 9.96 4.473 9.96 9.96v1.103z" fill="#D1D1FF"/><path d="M148.982 264.313l-.959.604 95.456 151.305.958-.605-95.455-151.304z" fill="#1B1B43"/><path d="M243.473 264.351L147.982 415.62l.958.605 95.491-151.269-.958-.605z" fill="#1B1B43"/><path d="M279.864 258.441h-167.26v12.613h167.26v-12.613z" fill="#D1D1FF"/><path d="M617 415.442H19.03v1.133H617v-1.133z" fill="#1B1B43"/><path fill-rule="evenodd" clip-rule="evenodd" d="M367.328 103.178h35.976c1.181 0 2.148.967 2.148 2.149a2.155 2.155 0 01-2.148 2.148h-35.976a2.154 2.154 0 01-2.147-2.148c0-1.182.966-2.149 2.147-2.149z" fill="#F39C20"/><path opacity=".5" fill-rule="evenodd" clip-rule="evenodd" d="M413.721 103.178h19.813c1.181 0 2.148.967 2.148 2.149a2.155 2.155 0 01-2.148 2.148h-19.813a2.154 2.154 0 01-2.148-2.148c0-1.182.966-2.149 2.148-2.149z" fill="#8BA9F4"/><path fill-rule="evenodd" clip-rule="evenodd" d="M379.195 117.464h40.7c1.182 0 2.148.966 2.148 2.148a2.154 2.154 0 01-2.148 2.148h-40.7a2.155 2.155 0 01-2.148-2.148c.054-1.182 1.02-2.148 2.148-2.148z" fill="#F39C20"/><path opacity=".5" fill-rule="evenodd" clip-rule="evenodd" d="M431.01 117.464h22.606c1.181 0 2.147.966 2.147 2.148a2.154 2.154 0 01-2.147 2.148H431.01a2.155 2.155 0 01-2.148-2.148c.054-1.182 1.021-2.148 2.148-2.148zm34.043 0h28.082c1.181 0 2.148.966 2.148 2.148a2.155 2.155 0 01-2.148 2.148h-28.082a2.154 2.154 0 01-2.148-2.148c.054-1.182 1.02-2.148 2.148-2.148zM379.195 132.5h54.124c1.181 0 2.148.967 2.148 2.149a2.155 2.155 0 01-2.148 2.148h-54.124a2.155 2.155 0 01-2.148-2.148c0-1.182 1.02-2.149 2.148-2.149z" fill="#8BA9F4"/><path fill-rule="evenodd" clip-rule="evenodd" d="M444.38 132.5h25.935c1.181 0 2.148.967 2.148 2.149a2.155 2.155 0 01-2.148 2.148H444.38a2.155 2.155 0 01-2.148-2.148c0-1.182.967-2.149 2.148-2.149z" fill="#C5D4FA"/><path opacity=".5" fill-rule="evenodd" clip-rule="evenodd" d="M480.624 132.5h42.58c1.181 0 2.148.967 2.148 2.149a2.155 2.155 0 01-2.148 2.148h-42.58a2.155 2.155 0 01-2.148-2.148c0-1.182.967-2.149 2.148-2.149z" fill="#8BA9F4"/><path fill-rule="evenodd" clip-rule="evenodd" d="M379.195 147.162h20.243c1.181 0 2.147.967 2.147 2.148a2.153 2.153 0 01-2.147 2.148h-20.243a2.154 2.154 0 01-2.148-2.148c.054-1.181 1.02-2.148 2.148-2.148z" fill="#C5D4FA"/><path opacity=".5" fill-rule="evenodd" clip-rule="evenodd" d="M409.425 147.162h72.058c1.182 0 2.148.967 2.148 2.148a2.154 2.154 0 01-2.148 2.148h-72.058a2.154 2.154 0 01-2.148-2.148c0-1.181.967-2.148 2.148-2.148z" fill="#8BA9F4"/><path fill-rule="evenodd" clip-rule="evenodd" d="M379.195 161.394h54.124c1.181 0 2.148.966 2.148 2.148a2.155 2.155 0 01-2.148 2.148h-54.124a2.155 2.155 0 01-2.148-2.148c.054-1.182 1.02-2.148 2.148-2.148z" fill="#F39C20"/><path opacity=".5" fill-rule="evenodd" clip-rule="evenodd" d="M444.38 161.394h25.935c1.181 0 2.148.966 2.148 2.148a2.155 2.155 0 01-2.148 2.148H444.38a2.155 2.155 0 01-2.148-2.148c0-1.182.967-2.148 2.148-2.148zm36.244 0h42.58c1.181 0 2.148.966 2.148 2.148a2.155 2.155 0 01-2.148 2.148h-42.58a2.155 2.155 0 01-2.148-2.148c0-1.182.967-2.148 2.148-2.148zm-101.429 14.929h54.124c1.181 0 2.148.966 2.148 2.148a2.155 2.155 0 01-2.148 2.148h-54.124a2.155 2.155 0 01-2.148-2.148c.054-1.182 1.02-2.148 2.148-2.148z" fill="#8BA9F4"/><path fill-rule="evenodd" clip-rule="evenodd" d="M444.38 176.323h25.935c1.181 0 2.148.966 2.148 2.148a2.155 2.155 0 01-2.148 2.148H444.38a2.155 2.155 0 01-2.148-2.148c0-1.182.967-2.148 2.148-2.148z" fill="#77C6FB"/><path d="M260.667 241.466h179.766v42.944" stroke="#7690FF" stroke-width="2" stroke-linecap="round" stroke-linejoin="round" stroke-dasharray="7 7"/><path d="M610.087 165.638v36.897c0 5.307-5.509 9.807-12.83 10.203l-15.128.057h-35.154c-3.898 0-7.385-1.181-9.887-3.059-2.502-1.879-3.995-4.433-3.995-7.201v-36.89c0-2.795 1.511-5.349 4.022-7.221 2.512-1.872 6-3.039 9.86-3.039h49.307c3.859 0 7.346 1.181 9.849 3.06 2.502 1.879 3.992 4.43 3.956 7.193z" fill="#fff" stroke="#9192FF"/><path d="M346.088 164.066h-97.822v37.758M230.705 76.18h115.383" stroke="#7690FF" stroke-width="2" stroke-linecap="round" stroke-linejoin="round" stroke-dasharray="7 7"/><path d="M521.95 390.5h-133.9c-5.262 0-9.55-4.292-9.55-9.564v-92.872c0-5.272 4.288-9.564 9.55-9.564h133.9c5.262 0 9.55 4.292 9.55 9.564v92.872c0 5.272-4.288 9.564-9.55 9.564z" fill="#fff" stroke="#9192FF"/><path opacity=".5" d="M394.114 288.859a2.328 2.328 0 00-2.318-2.317 2.329 2.329 0 00-2.318 2.317 2.33 2.33 0 002.318 2.318 2.329 2.329 0 002.318-2.318zm8.151 0a2.329 2.329 0 00-2.318-2.317 2.328 2.328 0 00-2.318 2.317 2.329 2.329 0 002.318 2.318 2.33 2.33 0 002.318-2.318zm8.075 0a2.328 2.328 0 00-2.318-2.317 2.329 2.329 0 00-2.318 2.317 2.33 2.33 0 002.318 2.318 2.329 2.329 0 002.318-2.318z" fill="#7690FF"/><path opacity=".3" d="M430.958 324.237c3.321-8.433-.822-17.962-9.255-21.284-8.432-3.322-17.961.822-21.283 9.254-3.322 8.433.821 17.962 9.254 21.284 8.433 3.322 17.962-.822 21.284-9.254z" fill="#7690FF"/><path d="M422.009 333.423c-8.348 3.488-18.012-.458-21.5-8.863-3.488-8.349.458-18.012 8.863-21.501l12.637 30.364z" fill="#90CAF9"/><path d="M422.124 333.423c8.348-3.488 12.351-13.095 8.863-21.5l-15.211 6.347 6.348 15.153z" fill="#FCB19D"/><path d="M415.833 318.499l18.413-7.663c-2.116-5.089-6.061-8.806-10.75-10.693l-7.663 18.356z" fill="#8BA9F4"/><path opacity=".54" d="M398.271 356.852h-4.832v12.563h4.832m8.697-16.428h-4.832v16.428h4.832m8.697-10.63h-4.832v10.63h4.832m8.697-14.495h-4.832v14.495h4.832m9.664-19.327h-4.832v19.327h4.832" fill="#FF4646"/><path d="M442.723 356.852h-4.832v12.563h4.832" fill="#EB8E9B"/><path d="M443.175 369.265h-51.669" stroke="#DC3912" stroke-width=".866" stroke-miterlimit="10"/><path opacity=".5" d="M464.903 303.703h-4.786v4.785h4.786v-4.785zm0 9.571h-4.786v4.785h4.786v-4.785zm0 11.336h-4.786v4.785h4.786v-4.785z" fill="#FF9177"/><path d="M469.016 306.249h43.486m-43.688 9.983h32.856m-32.856 10.663h22.226" stroke="#000" stroke-width=".5" stroke-miterlimit="10" stroke-linecap="round" stroke-linejoin="round"/><circle cx="284.596" cy="75.596" r="11.596" fill="#FF3C3C"/><path d="M291.442 72.603c-.728-.825-1.755-1.28-2.892-1.28-1.402 0-2.457.808-3.197 1.704.281.432.5.845.66 1.18.568-.818 1.418-1.645 2.537-1.645 1.579 0 2.724 1.276 2.724 3.034 0 1.758-1.145 3.034-2.724 3.034-2.257 0-3.365-3.199-3.376-3.23l-.003-.01c-.058-.165-1.465-4.066-4.546-4.066-1.137 0-2.164.454-2.893 1.28-.69.78-1.07 1.844-1.07 2.992s.38 2.211 1.07 2.993c.729.825 1.756 1.28 2.893 1.28 1.413 0 2.463-.788 3.196-1.67-.28-.432-.497-.846-.657-1.186-.56.808-1.405 1.617-2.539 1.617-1.579 0-2.725-1.276-2.725-3.034 0-1.758 1.146-3.034 2.725-3.034 2.178 0 3.34 3.135 3.377 3.237.083.243 1.432 4.07 4.548 4.07 1.137 0 2.164-.455 2.892-1.28.691-.782 1.071-1.844 1.071-2.993 0-1.148-.38-2.211-1.071-2.993z" fill="#fff"/><path d="M210.816 78.523a58.672 58.672 0 01-3.658 0c-5.144-.141-9.243-.868-12.194-1.904-1.387-.468-2.575-1.019-3.492-1.649v6.587c1.994 2.082 8.684 4.001 17.517 4.001s15.523-1.92 17.517-4.001V74.97c-.923.635-2.121 1.19-3.521 1.659-2.949 1.031-7.04 1.754-12.169 1.894z" fill="#F39C20"/><path d="M191.472 65.784v6.586c1.848 1.93 7.731 3.72 15.615 3.972l.245.005a54.572 54.572 0 002.626.017c.231-.003.46-.01.688-.016l.245-.006c7.885-.251 13.767-2.042 15.615-3.971v-6.587c-3.41 2.342-10.619 3.58-17.517 3.58-6.897 0-14.106-1.238-17.517-3.58z" fill="#F39C20"/><path d="M226.412 61.337c-.786-3.014-6.832-5.986-17.423-5.986-10.564 0-16.603 2.957-17.414 5.963a.676.676 0 00-.103.343v1.616c1.988 2.075 8.63 3.99 17.517 3.99 8.887 0 15.53-1.915 17.517-3.99v-1.615a.648.648 0 00-.094-.322zm-34.94 22.743v5.746c0 .113.03.22.082.316.827 3.43 8.231 5.99 17.435 5.99 9.183 0 16.575-2.55 17.43-5.967a.696.696 0 00.087-.34v-5.744c-2.897 2.04-8.867 3.643-17.517 3.643-8.651 0-14.621-1.605-17.517-3.645z" fill="#F39C20"/><path d="M586.378 192.918l-11.043-20.33a4.54 4.54 0 00-3.937-2.241 4.542 4.542 0 00-3.938 2.241l-.018.032-11.006 20.266a4.531 4.531 0 00-.044 4.602 4.532 4.532 0 003.981 2.314h21.989c1.668 0 3.216-.865 4.041-2.314.824-1.449.808-3.17-.025-4.57zm-16.812-13.263a1.832 1.832 0 013.663 0v7.327a1.831 1.831 0 01-3.663 0v-7.327zm1.832 16.484a2.75 2.75 0 01-2.748-2.747 2.75 2.75 0 012.748-2.747 2.75 2.75 0 012.747 2.747 2.75 2.75 0 01-2.747 2.747z" fill="#FF3B3B"/><path d="M229.94 230.925c-1.174 2.064-.658 4.741 1.154 5.607 1.745 1.048 4.41.148 5.585-1.916 1.175-2.064.658-4.741-1.153-5.607-1.746-1.048-4.157-.263-5.586 1.916z" fill="#fff"/><path d="M461.083 353.953l9.238 5.798 9.947-11.596 9.948 2.175 9.237-2.175 9.948 2.175" stroke="#DC3912" stroke-width=".7" stroke-linecap="round" stroke-linejoin="round"/><path d="M460.117 360.288l10 5.262 9.999-9.771 9.286 2.254 9.999-6.012 10 4.509" stroke="#36C" stroke-width=".7" stroke-linecap="round" stroke-linejoin="round"/><path d="M461.083 366.34l9.948 2.109 9.237-7.731 9.238 2.108 9.947-1.405 9.948 6.325" stroke="#F90" stroke-width=".7" stroke-linecap="round" stroke-linejoin="round"/></svg>