<svg width="620" height="460" fill="none" xmlns="http://www.w3.org/2000/svg"><g clip-path="url(#clip0)"><path d="M33.444 394.246s1.054 21.081 6.324 22.487c5.27 1.405 26.877-18.27 26.877-18.27l2.46-9.311-15.987-11.595c0-.175-18.971 5.798-19.674 16.689z" fill="#AFACE4"/></g><path d="M236.686 206.158v164.25c0 4.34 3.344 7.767 7.335 7.767h262.657c4.099 0 7.335-3.541 7.335-7.767v-164.25c0-4.227-3.344-7.767-7.335-7.767H244.129c-4.099 0-7.443 3.54-7.443 7.767z" fill="#D0CFFF"/><g clip-path="url(#clip1)"><path d="M236.633 205.4v12.966h277.929V205.4c0-3.998-3.351-7.347-7.351-7.347H244.092c-4.108 0-7.459 3.349-7.459 7.347z" fill="#AAA8FF"/><path opacity=".5" d="M258.232 208.209c0 1.837 1.513 3.458 3.459 3.458 1.838 0 3.46-1.513 3.46-3.458 0-1.837-1.514-3.457-3.46-3.457-1.946.108-3.459 1.62-3.459 3.457zm11.997.333c0 1.837 1.513 3.458 3.459 3.458 1.838 0 3.459-1.513 3.459-3.458 0-1.837-1.513-3.458-3.459-3.458-1.946.109-3.459 1.621-3.459 3.458zm-23.023-.333c0 1.837 1.513 3.458 3.459 3.458 1.838 0 3.459-1.513 3.459-3.458 0-1.837-1.513-3.457-3.459-3.457-1.946.108-3.459 1.62-3.459 3.457z" fill="#fff"/><rect x="260.594" y="234.73" width="92.761" height="58.334" rx="4" fill="#fff"/><rect x="260.594" y="310.277" width="92.761" height="58.334" rx="4" fill="#fff"/><path d="M272.554 336.097h-.131v26.552h.131v-26.552zm14.092 0h-.131v26.552h.131v-26.552zm14.159 0h-.132v26.552h.132v-26.552zm14.156 0h-.131v26.552h.131v-26.552zm14.224 0h-.196v26.552h.196v-26.552zm14.026 0h-.131v26.552h.131v-26.552z" fill="#DAE1EA"/><path d="M286.645 356.478l-14.288-4.378.262-.431 13.961 4.163 14.157-6.1 14.092 4.521 14.092-8.97 14.157-5.311.262.431-14.157 5.31-14.223 9.186-14.157-4.521-14.158 6.1z" fill="#B9CFDF"/><path d="M273.866 351.885c0 .861-.656 1.507-1.376 1.507-.721 0-1.377-.718-1.377-1.507 0-.861.656-1.507 1.377-1.507.72 0 1.376.646 1.376 1.507zm14.158 4.306c0 .861-.655 1.507-1.376 1.507-.787 0-1.377-.718-1.377-1.507 0-.862.656-1.507 1.377-1.507s1.376.645 1.376 1.507zm14.156-6.172c0 .861-.655 1.507-1.376 1.507-.787 0-1.377-.718-1.377-1.507 0-.789.656-1.507 1.377-1.507.721-.072 1.376.646 1.376 1.507zm14.158 4.234c0 .861-.655 1.507-1.376 1.507-.787 0-1.377-.718-1.377-1.507 0-.789.656-1.507 1.377-1.507s1.376.646 1.376 1.507zm12.717-7.32c.76 0 1.376-.674 1.376-1.507 0-.832-.616-1.507-1.376-1.507-.76 0-1.376.675-1.376 1.507 0 .833.616 1.507 1.376 1.507zm15.532-6.745c0 .861-.655 1.507-1.376 1.507-.787 0-1.377-.718-1.377-1.507 0-.79.656-1.507 1.377-1.507s1.376.646 1.376 1.507z" fill="#1A7BD9"/><rect x="387.781" y="234.73" width="92.761" height="58.334" rx="4" fill="#fff"/><rect x="387.781" y="310.277" width="92.761" height="58.334" rx="4" fill="#fff"/><g clip-path="url(#clip2)" stroke-width=".5" stroke-linecap="round" stroke-linejoin="round"><path d="M340.923 285.253l-.129-.184-2.373.899-1.676-2.044-3.585 3.271-3.405-1.227-1.753 1.943-3.456-16.03-.026-.102h-1.212l-1.754-5.03-1.47-.674-.929.818-1.547-2.352-1.29 1.125-2.476-6.072-6.808 15.252-3.353.245-4.101.614-1.315 1.063-1.677-2.331-.051-.02-1.986-.532-1.419-1.411-2.837 3.783-6.525 3.925-7.247-2.392-8.279 4.825.155.184 8.15-4.764 7.273 2.393 6.654-4.008h.026l2.656-3.557 1.238 1.226 1.96.512 1.857 2.535 1.496-1.206 4.023-.614 3.508-.266 6.602-14.761 2.347 5.806 1.367-1.165 1.522 2.351 1.057-.92 1.187.552 1.754 5.091h1.212l3.559 16.479 1.986-2.228 3.404 1.206 3.482-3.169" stroke="#4F6FEF"/><path d="M340.82 277.708l-2.012.286-2.862-.224-.619.899-2.322-.981-2.243 1.329-3.946-3.19-.052-.041-2.992.471-2.888-2.863-1.754.552h-2.76l-3.714-4.661-3.352 3.046-2.992 1.615-1.728-.531-2.424 1.329h-3.018l-2.218 1.717-1.702-1.124-2.347 2.167-2.992 1.983h-.026l-1.831 2.678-6.19 2.74-1.676-1.043-2.76.348-2.682-2.944-6.37-1.043-.052.205 6.242 1.042 2.733 2.985 2.812-.347 1.728 1.063 6.396-2.822.026-.02 1.831-2.699 2.991-1.963 2.193-2.024 1.702 1.104 2.321-1.778h2.992l2.347-1.309 1.728.532 3.146-1.677v-.02l3.121-2.842 3.611 4.518h2.966l1.624-.511 2.837 2.822 3.018-.45 4.075 3.271 2.295-1.349" stroke="#F7AA48"/></g><g clip-path="url(#clip3)"><path d="M399.042 333.228h-.158v.129h.158v-.129zm69.137.129h-.315v-.129h.315v.129zm-.969 0h-.315v-.129h.315v.129zm-.968 0h-.315v-.129h.315v.129zm-.991 0h-.315v-.129h.315v.129zm-.968 0h-.315v-.129h.315v.129zm-.969 0h-.315v-.129h.315v.129zm-.968 0h-.315v-.129h.315v.129zm-.991 0h-.315v-.129h.315v.129zm-.968 0h-.315v-.129h.315v.129zm-.969 0h-.315v-.129h.315v.129zm-.968 0h-.315v-.129h.315v.129zm-.991 0h-.315v-.129h.315v.129zm-.968 0h-.315v-.129h.315v.129zm-.969 0h-.315v-.129h.315v.129zm-.968 0h-.338v-.129h.316v.129h.022zm-.991 0h-.315v-.129h.315v.129zm-.968 0h-.316v-.129h.316v.129zm-.969 0h-.337v-.129h.315v.129h.022zm-.968 0h-.315v-.129h.315v.129zm-.991 0h-.315v-.129h.315v.129zm-.968 0h-.316v-.129h.316v.129zm-.969 0h-.315v-.129h.315v.129zm-.968 0h-.315v-.129h.315v.129zm-.991 0h-.315v-.129h.315v.129zm-.968 0h-.316v-.129h.316v.129zm-.969 0h-.315v-.129h.315v.129zm-.968 0h-.315v-.129h.315v.129zm-.991 0h-.315v-.129h.315v.129zm-.968 0h-.316v-.129h.316v.129zm-.969 0h-.315v-.129h.315v.129zm-.968 0h-.315v-.129h.315v.129zm-.968 0h-.316v-.129h.316v.129zm-.991 0h-.316v-.129h.316v.129zm-.969 0h-.315v-.129h.315v.129zm-.968 0h-.315v-.129h.315v.129zm-.968 0h-.316v-.129h.316v.129zm-.991 0h-.316v-.129h.316v.129zm-.969 0h-.315v-.129h.315v.129zm-.968 0h-.315v-.129h.315v.129zm-.968 0h-.316v-.129h.316v.129zm-.991 0h-.316v-.129h.316v.129zm-.969 0h-.315v-.129h.315v.129zm-.968 0h-.315v-.129h.315v.129zm-.968 0h-.316v-.129h.316v.129zm-.991 0h-.316v-.129h.316v.129zm-.969 0h-.315v-.129h.315v.129zm-.968 0h-.315v-.129h.315v.129zm-.969 0h-.315v-.129h.315v.129zm-.99 0h-.316v-.129h.316v.129zm-.969 0h-.315v-.129h.315v.129zm-.968 0h-.315v-.129h.315v.129zm-.969 0h-.337v-.129h.315v.129h.022zm-.99 0h-.316v-.129h.316v.129zm-.969 0h-.315v-.129h.315v.129zm-.968 0h-.315v-.129h.315v.129zm-.969 0h-.315v-.129h.315v.129zm-.99 0h-.316v-.129h.316v.129zm-.969 0h-.315v-.129h.315v.129zm-.968 0h-.315v-.129h.315v.129zm-.969 0h-.315v-.129h.315v.129zm-.968 0h-.315v-.129h.315v.129zm-.991 0h-.315v-.129h.315v.129zm-.968 0h-.315v-.129h.315v.129zm-.969 0h-.315v-.129h.315v.129zm-.968 0h-.315v-.129h.315v.129zm-.991 0h-.315v-.129h.315v.129zm-.968 0h-.316v-.129h.316v.129zm-.969 0h-.315v-.129h.315v.129zm-.968 0h-.315v-.129h.315v.129zm-.991 0h-.315v-.129h.315v.129zm-.968 0h-.316v-.129h.316v.129zm68.98-.129h-.158v.129h.158v-.129zm-69.948 5.334h-.158v.129h.158v-.129zm69.137.148h-.315v-.129h.315v.129zm-.969 0h-.315v-.129h.315v.129zm-.968 0h-.315v-.129h.315v.129zm-.991 0h-.315v-.129h.315v.129zm-.968 0h-.315v-.129h.315v.129zm-.969 0h-.315v-.129h.315v.129zm-.968 0h-.315v-.129h.315v.129zm-.991 0h-.315v-.129h.315v.129zm-.968 0h-.315v-.129h.315v.129zm-.969 0h-.315v-.129h.315v.129zm-.968 0h-.315v-.129h.315v.129zm-.991 0h-.315v-.129h.315v.129zm-.968 0h-.315v-.129h.315v.129zm-.969 0h-.315v-.129h.315v.129zm-.968 0h-.338v-.129h.316v.129h.022zm-.991 0h-.315v-.129h.315v.129zm-.968 0h-.316v-.129h.316v.129zm-.969 0h-.337v-.129h.315v.129h.022zm-.968 0h-.315v-.129h.315v.129zm-.991 0h-.315v-.129h.315v.129zm-.968 0h-.316v-.129h.316v.129zm-.969 0h-.315v-.129h.315v.129zm-.968 0h-.315v-.129h.315v.129zm-.991 0h-.315v-.129h.315v.129zm-.968 0h-.316v-.129h.316v.129zm-.969 0h-.315v-.129h.315v.129zm-.968 0h-.315v-.129h.315v.129zm-.991 0h-.315v-.129h.315v.129zm-.968 0h-.316v-.129h.316v.129zm-.969 0h-.315v-.129h.315v.129zm-.968 0h-.315v-.129h.315v.129zm-.968 0h-.316v-.129h.316v.129zm-.991 0h-.316v-.129h.316v.129zm-.969 0h-.315v-.129h.315v.129zm-.968 0h-.315v-.129h.315v.129zm-.968 0h-.316v-.129h.316v.129zm-.991 0h-.316v-.129h.316v.129zm-.969 0h-.315v-.129h.315v.129zm-.968 0h-.315v-.129h.315v.129zm-.968 0h-.316v-.129h.316v.129zm-.991 0h-.316v-.129h.316v.129zm-.969 0h-.315v-.129h.315v.129zm-.968 0h-.315v-.129h.315v.129zm-.968 0h-.316v-.129h.316v.129zm-.991 0h-.316v-.129h.316v.129zm-.969 0h-.315v-.129h.315v.129zm-.968 0h-.315v-.129h.315v.129zm-.969 0h-.315v-.129h.315v.129zm-.99 0h-.316v-.129h.316v.129zm-.969 0h-.315v-.129h.315v.129zm-.968 0h-.315v-.129h.315v.129zm-.969 0h-.337v-.129h.315v.129h.022zm-.99 0h-.316v-.129h.316v.129zm-.969 0h-.315v-.129h.315v.129zm-.968 0h-.315v-.129h.315v.129zm-.969 0h-.315v-.129h.315v.129zm-.99 0h-.316v-.129h.316v.129zm-.969 0h-.315v-.129h.315v.129zm-.968 0h-.315v-.129h.315v.129zm-.969 0h-.315v-.129h.315v.129zm-.968 0h-.315v-.129h.315v.129zm-.991 0h-.315v-.129h.315v.129zm-.968 0h-.315v-.129h.315v.129zm-.969 0h-.315v-.129h.315v.129zm-.968 0h-.315v-.129h.315v.129zm-.991 0h-.315v-.129h.315v.129zm-.968 0h-.316v-.129h.316v.129zm-.969 0h-.315v-.129h.315v.129zm-.968 0h-.315v-.129h.315v.129zm-.991 0h-.315v-.129h.315v.129zm-.968 0h-.316v-.129h.316v.129zm68.98-.148h-.158v.129h.158v-.129zm-69.948 5.352h-.158v.129h.158v-.129zm69.137.129h-.315v-.129h.315v.129zm-.969 0h-.315v-.129h.315v.129zm-.968 0h-.315v-.129h.315v.129zm-.991 0h-.315v-.129h.315v.129zm-.968 0h-.315v-.129h.315v.129zm-.969 0h-.315v-.129h.315v.129zm-.968 0h-.315v-.129h.315v.129zm-.991 0h-.315v-.129h.315v.129zm-.968 0h-.315v-.129h.315v.129zm-.969 0h-.315v-.129h.315v.129zm-.968 0h-.315v-.129h.315v.129zm-.991 0h-.315v-.129h.315v.129zm-.968 0h-.315v-.129h.315v.129zm-.969 0h-.315v-.129h.315v.129zm-.968 0h-.338v-.129h.316v.129h.022zm-.991 0h-.315v-.129h.315v.129zm-.968 0h-.316v-.129h.316v.129zm-.969 0h-.337v-.129h.315v.129h.022zm-.968 0h-.315v-.129h.315v.129zm-.991 0h-.315v-.129h.315v.129zm-.968 0h-.316v-.129h.316v.129zm-.969 0h-.315v-.129h.315v.129zm-.968 0h-.315v-.129h.315v.129zm-.991 0h-.315v-.129h.315v.129zm-.968 0h-.316v-.129h.316v.129zm-.969 0h-.315v-.129h.315v.129zm-.968 0h-.315v-.129h.315v.129zm-.991 0h-.315v-.129h.315v.129zm-.968 0h-.316v-.129h.316v.129zm-.969 0h-.315v-.129h.315v.129zm-.968 0h-.315v-.129h.315v.129zm-.968 0h-.316v-.129h.316v.129zm-.991 0h-.316v-.129h.316v.129zm-.969 0h-.315v-.129h.315v.129zm-.968 0h-.315v-.129h.315v.129zm-.968 0h-.316v-.129h.316v.129zm-.991 0h-.316v-.129h.316v.129zm-.969 0h-.315v-.129h.315v.129zm-.968 0h-.315v-.129h.315v.129zm-.968 0h-.316v-.129h.316v.129zm-.991 0h-.316v-.129h.316v.129zm-.969 0h-.315v-.129h.315v.129zm-.968 0h-.315v-.129h.315v.129zm-.968 0h-.316v-.129h.316v.129zm-.991 0h-.316v-.129h.316v.129zm-.969 0h-.315v-.129h.315v.129zm-.968 0h-.315v-.129h.315v.129zm-.969 0h-.315v-.129h.315v.129zm-.99 0h-.316v-.129h.316v.129zm-.969 0h-.315v-.129h.315v.129zm-.968 0h-.315v-.129h.315v.129zm-.969 0h-.337v-.129h.315v.129h.022zm-.99 0h-.316v-.129h.316v.129zm-.969 0h-.315v-.129h.315v.129zm-.968 0h-.315v-.129h.315v.129zm-.969 0h-.315v-.129h.315v.129zm-.99 0h-.316v-.129h.316v.129zm-.969 0h-.315v-.129h.315v.129zm-.968 0h-.315v-.129h.315v.129zm-.969 0h-.315v-.129h.315v.129zm-.968 0h-.315v-.129h.315v.129zm-.991 0h-.315v-.129h.315v.129zm-.968 0h-.315v-.129h.315v.129zm-.969 0h-.315v-.129h.315v.129zm-.968 0h-.315v-.129h.315v.129zm-.991 0h-.315v-.129h.315v.129zm-.968 0h-.316v-.129h.316v.129zm-.969 0h-.315v-.129h.315v.129zm-.968 0h-.315v-.129h.315v.129zm-.991 0h-.315v-.129h.315v.129zm-.968 0h-.316v-.129h.316v.129zm68.98-.129h-.158v.129h.158v-.129zm-69.948 5.334h-.158v.129h.158v-.129zm69.137.148h-.315v-.129h.315v.129zm-.969 0h-.315v-.129h.315v.129zm-.968 0h-.315v-.129h.315v.129zm-.991 0h-.315v-.129h.315v.129zm-.968 0h-.315v-.129h.315v.129zm-.969 0h-.315v-.129h.315v.129zm-.968 0h-.315v-.129h.315v.129zm-.991 0h-.315v-.129h.315v.129zm-.968 0h-.315v-.129h.315v.129zm-.969 0h-.315v-.129h.315v.129zm-.968 0h-.315v-.129h.315v.129zm-.991 0h-.315v-.129h.315v.129zm-.968 0h-.315v-.129h.315v.129zm-.969 0h-.315v-.129h.315v.129zm-.968 0h-.338v-.129h.316v.129h.022zm-.991 0h-.315v-.129h.315v.129zm-.968 0h-.316v-.129h.316v.129zm-.969 0h-.337v-.129h.315v.129h.022zm-.968 0h-.315v-.129h.315v.129zm-.991 0h-.315v-.129h.315v.129zm-.968 0h-.316v-.129h.316v.129zm-.969 0h-.315v-.129h.315v.129zm-.968 0h-.315v-.129h.315v.129zm-.991 0h-.315v-.129h.315v.129zm-.968 0h-.316v-.129h.316v.129zm-.969 0h-.315v-.129h.315v.129zm-.968 0h-.315v-.129h.315v.129zm-.991 0h-.315v-.129h.315v.129zm-.968 0h-.316v-.129h.316v.129zm-.969 0h-.315v-.129h.315v.129zm-.968 0h-.315v-.129h.315v.129zm-.968 0h-.316v-.129h.316v.129zm-.991 0h-.316v-.129h.316v.129zm-.969 0h-.315v-.129h.315v.129zm-.968 0h-.315v-.129h.315v.129zm-.968 0h-.316v-.129h.316v.129zm-.991 0h-.316v-.129h.316v.129zm-.969 0h-.315v-.129h.315v.129zm-.968 0h-.315v-.129h.315v.129zm-.968 0h-.316v-.129h.316v.129zm-.991 0h-.316v-.129h.316v.129zm-.969 0h-.315v-.129h.315v.129zm-.968 0h-.315v-.129h.315v.129zm-.968 0h-.316v-.129h.316v.129zm-.991 0h-.316v-.129h.316v.129zm-.969 0h-.315v-.129h.315v.129zm-.968 0h-.315v-.129h.315v.129zm-.969 0h-.315v-.129h.315v.129zm-.99 0h-.316v-.129h.316v.129zm-.969 0h-.315v-.129h.315v.129zm-.968 0h-.315v-.129h.315v.129zm-.969 0h-.337v-.129h.315v.129h.022zm-.99 0h-.316v-.129h.316v.129zm-.969 0h-.315v-.129h.315v.129zm-.968 0h-.315v-.129h.315v.129zm-.969 0h-.315v-.129h.315v.129zm-.99 0h-.316v-.129h.316v.129zm-.969 0h-.315v-.129h.315v.129zm-.968 0h-.315v-.129h.315v.129zm-.969 0h-.315v-.129h.315v.129zm-.968 0h-.315v-.129h.315v.129zm-.991 0h-.315v-.129h.315v.129zm-.968 0h-.315v-.129h.315v.129zm-.969 0h-.315v-.129h.315v.129zm-.968 0h-.315v-.129h.315v.129zm-.991 0h-.315v-.129h.315v.129zm-.968 0h-.316v-.129h.316v.129zm-.969 0h-.315v-.129h.315v.129zm-.968 0h-.315v-.129h.315v.129zm-.991 0h-.315v-.129h.315v.129zm-.968 0h-.316v-.129h.316v.129zm68.98-.148h-.158v.129h.158v-.129zm-69.948 5.352h-.158v.13h.158v-.13zm69.137.13h-.315v-.13h.315v.13zm-.969 0h-.315v-.13h.315v.13zm-.968 0h-.315v-.13h.315v.13zm-.991 0h-.315v-.13h.315v.13zm-.968 0h-.315v-.13h.315v.13zm-.969 0h-.315v-.13h.315v.13zm-.968 0h-.315v-.13h.315v.13zm-.991 0h-.315v-.13h.315v.13zm-.968 0h-.315v-.13h.315v.13zm-.969 0h-.315v-.13h.315v.13zm-.968 0h-.315v-.13h.315v.13zm-.991 0h-.315v-.13h.315v.13zm-.968 0h-.315v-.13h.315v.13zm-.969 0h-.315v-.13h.315v.13zm-.968 0h-.338v-.13h.316v.13h.022zm-.991 0h-.315v-.13h.315v.13zm-.968 0h-.316v-.13h.316v.13zm-.969 0h-.337v-.13h.315v.13h.022zm-.968 0h-.315v-.13h.315v.13zm-.991 0h-.315v-.13h.315v.13zm-.968 0h-.316v-.13h.316v.13zm-.969 0h-.315v-.13h.315v.13zm-.968 0h-.315v-.13h.315v.13zm-.991 0h-.315v-.13h.315v.13zm-.968 0h-.316v-.13h.316v.13zm-.969 0h-.315v-.13h.315v.13zm-.968 0h-.315v-.13h.315v.13zm-.991 0h-.315v-.13h.315v.13zm-.968 0h-.316v-.13h.316v.13zm-.969 0h-.315v-.13h.315v.13zm-.968 0h-.315v-.13h.315v.13zm-.968 0h-.316v-.13h.316v.13zm-.991 0h-.316v-.13h.316v.13zm-.969 0h-.315v-.13h.315v.13zm-.968 0h-.315v-.13h.315v.13zm-.968 0h-.316v-.13h.316v.13zm-.991 0h-.316v-.13h.316v.13zm-.969 0h-.315v-.13h.315v.13zm-.968 0h-.315v-.13h.315v.13zm-.968 0h-.316v-.13h.316v.13zm-.991 0h-.316v-.13h.316v.13zm-.969 0h-.315v-.13h.315v.13zm-.968 0h-.315v-.13h.315v.13zm-.968 0h-.316v-.13h.316v.13zm-.991 0h-.316v-.13h.316v.13zm-.969 0h-.315v-.13h.315v.13zm-.968 0h-.315v-.13h.315v.13zm-.969 0h-.315v-.13h.315v.13zm-.99 0h-.316v-.13h.316v.13zm-.969 0h-.315v-.13h.315v.13zm-.968 0h-.315v-.13h.315v.13zm-.969 0h-.337v-.13h.315v.13h.022zm-.99 0h-.316v-.13h.316v.13zm-.969 0h-.315v-.13h.315v.13zm-.968 0h-.315v-.13h.315v.13zm-.969 0h-.315v-.13h.315v.13zm-.99 0h-.316v-.13h.316v.13zm-.969 0h-.315v-.13h.315v.13zm-.968 0h-.315v-.13h.315v.13zm-.969 0h-.315v-.13h.315v.13zm-.968 0h-.315v-.13h.315v.13zm-.991 0h-.315v-.13h.315v.13zm-.968 0h-.315v-.13h.315v.13zm-.969 0h-.315v-.13h.315v.13zm-.968 0h-.315v-.13h.315v.13zm-.991 0h-.315v-.13h.315v.13zm-.968 0h-.316v-.13h.316v.13zm-.969 0h-.315v-.13h.315v.13zm-.968 0h-.315v-.13h.315v.13zm-.991 0h-.315v-.13h.315v.13zm-.968 0h-.316v-.13h.316v.13zm68.98-.13h-.158v.13h.158v-.13zm-69.948 5.334h-.158v.129h.158v-.129zm69.137.129h-.315v-.129h.315v.129zm-.969 0h-.315v-.129h.315v.129zm-.968 0h-.315v-.129h.315v.129zm-.991 0h-.315v-.129h.315v.129zm-.968 0h-.315v-.129h.315v.129zm-.969 0h-.315v-.129h.315v.129zm-.968 0h-.315v-.129h.315v.129zm-.991 0h-.315v-.129h.315v.129zm-.968 0h-.315v-.129h.315v.129zm-.969 0h-.315v-.129h.315v.129zm-.968 0h-.315v-.129h.315v.129zm-.991 0h-.315v-.129h.315v.129zm-.968 0h-.315v-.129h.315v.129zm-.969 0h-.315v-.129h.315v.129zm-.968 0h-.338v-.129h.316v.129h.022zm-.991 0h-.315v-.129h.315v.129zm-.968 0h-.316v-.129h.316v.129zm-.969 0h-.337v-.129h.315v.129h.022zm-.968 0h-.315v-.129h.315v.129zm-.991 0h-.315v-.129h.315v.129zm-.968 0h-.316v-.129h.316v.129zm-.969 0h-.315v-.129h.315v.129zm-.968 0h-.315v-.129h.315v.129zm-.991 0h-.315v-.129h.315v.129zm-.968 0h-.316v-.129h.316v.129zm-.969 0h-.315v-.129h.315v.129zm-.968 0h-.315v-.129h.315v.129zm-.991 0h-.315v-.129h.315v.129zm-.968 0h-.316v-.129h.316v.129zm-.969 0h-.315v-.129h.315v.129zm-.968 0h-.315v-.129h.315v.129zm-.968 0h-.316v-.129h.316v.129zm-.991 0h-.316v-.129h.316v.129zm-.969 0h-.315v-.129h.315v.129zm-.968 0h-.315v-.129h.315v.129zm-.968 0h-.316v-.129h.316v.129zm-.991 0h-.316v-.129h.316v.129zm-.969 0h-.315v-.129h.315v.129zm-.968 0h-.315v-.129h.315v.129zm-.968 0h-.316v-.129h.316v.129zm-.991 0h-.316v-.129h.316v.129zm-.969 0h-.315v-.129h.315v.129zm-.968 0h-.315v-.129h.315v.129zm-.968 0h-.316v-.129h.316v.129zm-.991 0h-.316v-.129h.316v.129zm-.969 0h-.315v-.129h.315v.129zm-.968 0h-.315v-.129h.315v.129zm-.969 0h-.315v-.129h.315v.129zm-.99 0h-.316v-.129h.316v.129zm-.969 0h-.315v-.129h.315v.129zm-.968 0h-.315v-.129h.315v.129zm-.969 0h-.337v-.129h.315v.129h.022zm-.99 0h-.316v-.129h.316v.129zm-.969 0h-.315v-.129h.315v.129zm-.968 0h-.315v-.129h.315v.129zm-.969 0h-.315v-.129h.315v.129zm-.99 0h-.316v-.129h.316v.129zm-.969 0h-.315v-.129h.315v.129zm-.968 0h-.315v-.129h.315v.129zm-.969 0h-.315v-.129h.315v.129zm-.968 0h-.315v-.129h.315v.129zm-.991 0h-.315v-.129h.315v.129zm-.968 0h-.315v-.129h.315v.129zm-.969 0h-.315v-.129h.315v.129zm-.968 0h-.315v-.129h.315v.129zm-.991 0h-.315v-.129h.315v.129zm-.968 0h-.316v-.129h.316v.129zm-.969 0h-.315v-.129h.315v.129zm-.968 0h-.315v-.129h.315v.129zm-.991 0h-.315v-.129h.315v.129zm-.968 0h-.316v-.129h.316v.129zm68.98-.129h-.158v.129h.158v-.129zm-69.948 5.352h-.158v.13h.158v-.13zm69.137.13h-.315v-.13h.315v.13zm-.969 0h-.315v-.13h.315v.13zm-.968 0h-.315v-.13h.315v.13zm-.991 0h-.315v-.13h.315v.13zm-.968 0h-.315v-.13h.315v.13zm-.969 0h-.315v-.13h.315v.13zm-.968 0h-.315v-.13h.315v.13zm-.991 0h-.315v-.13h.315v.13zm-.968 0h-.315v-.13h.315v.13zm-.969 0h-.315v-.13h.315v.13zm-.968 0h-.315v-.13h.315v.13zm-.991 0h-.315v-.13h.315v.13zm-.968 0h-.315v-.13h.315v.13zm-.969 0h-.315v-.13h.315v.13zm-.968 0h-.338v-.13h.316v.13h.022zm-.991 0h-.315v-.13h.315v.13zm-.968 0h-.316v-.13h.316v.13zm-.969 0h-.337v-.13h.315v.13h.022zm-.968 0h-.315v-.13h.315v.13zm-.991 0h-.315v-.13h.315v.13zm-.968 0h-.316v-.13h.316v.13zm-.969 0h-.315v-.13h.315v.13zm-.968 0h-.315v-.13h.315v.13zm-.991 0h-.315v-.13h.315v.13zm-.968 0h-.316v-.13h.316v.13zm-.969 0h-.315v-.13h.315v.13zm-.968 0h-.315v-.13h.315v.13zm-.991 0h-.315v-.13h.315v.13zm-.968 0h-.316v-.13h.316v.13zm-.969 0h-.315v-.13h.315v.13zm-.968 0h-.315v-.13h.315v.13zm-.968 0h-.316v-.13h.316v.13zm-.991 0h-.316v-.13h.316v.13zm-.969 0h-.315v-.13h.315v.13zm-.968 0h-.315v-.13h.315v.13zm-.968 0h-.316v-.13h.316v.13zm-.991 0h-.316v-.13h.316v.13zm-.969 0h-.315v-.13h.315v.13zm-.968 0h-.315v-.13h.315v.13zm-.968 0h-.316v-.13h.316v.13zm-.991 0h-.316v-.13h.316v.13zm-.969 0h-.315v-.13h.315v.13zm-.968 0h-.315v-.13h.315v.13zm-.968 0h-.316v-.13h.316v.13zm-.991 0h-.316v-.13h.316v.13zm-.969 0h-.315v-.13h.315v.13zm-.968 0h-.315v-.13h.315v.13zm-.969 0h-.315v-.13h.315v.13zm-.99 0h-.316v-.13h.316v.13zm-.969 0h-.315v-.13h.315v.13zm-.968 0h-.315v-.13h.315v.13zm-.969 0h-.337v-.13h.315v.13h.022zm-.99 0h-.316v-.13h.316v.13zm-.969 0h-.315v-.13h.315v.13zm-.968 0h-.315v-.13h.315v.13zm-.969 0h-.315v-.13h.315v.13zm-.99 0h-.316v-.13h.316v.13zm-.969 0h-.315v-.13h.315v.13zm-.968 0h-.315v-.13h.315v.13zm-.969 0h-.315v-.13h.315v.13zm-.968 0h-.315v-.13h.315v.13zm-.991 0h-.315v-.13h.315v.13zm-.968 0h-.315v-.13h.315v.13zm-.969 0h-.315v-.13h.315v.13zm-.968 0h-.315v-.13h.315v.13zm-.991 0h-.315v-.13h.315v.13zm-.968 0h-.316v-.13h.316v.13zm-.969 0h-.315v-.13h.315v.13zm-.968 0h-.315v-.13h.315v.13zm-.991 0h-.315v-.13h.315v.13zm-.968 0h-.316v-.13h.316v.13zm68.98-.13h-.158v.13h.158v-.13z" fill="#BCC8E3"/><g clip-path="url(#clip4)"><path opacity=".3" d="M468.872 341.523v22.533h-70.101v-11.021c.483.177 1.275.386 2.184.125 2.125-.616 3.004-3.225 4.36-2.745.741.261.748 1.138 1.371 1.159 1.216.031 1.642-3.329 2.778-3.476 1.018-.125 1.179 2.923 2.308 3.413 2.287.981 4.588-9.821 8.253-9.988 3.657-.167 5.108 10.406 9.835 10.541 2.177.063 2.426-2.17 4.573-1.763 3.621.678 4.918 7.357 7.571 6.762 1.276-.281 1.671-1.982 2.954-1.763 1.458.24 1.744 2.974 2.44 2.922 1.796-.146 2.617-17.826 3.299-17.794.469.02.322 8.318 1.964 8.829.996.313 1.957-2.484 3.378-2.014.843.271.741 1.325 1.539 1.649 1.627.657 2.895-3.34 5.087-2.923.777.146.725.668 1.451.668 1.121 0 2.03-1.242 3.635-3.475.491-.668.872-1.252 1.121-1.639z" fill="url(#paint0_linear)"/></g></g></g><path d="M226.496 50.2h-76.065v101.563h76.065V50.2z" fill="#D4E2FF"/><path d="M222.422 66.841h-83.136v20.642h83.136V66.84z" fill="#8BA9F4"/><path d="M159.353 71.127h-16.355v2.5h16.355v-2.5zm0 4.285h-16.355v2.5h16.355v-2.5zm0 4.5h-16.355v2.5h16.355v-2.5z" fill="#EFF4FF"/><path d="M165.86 72.627c0 .5-.428.928-.928.928a.946.946 0 01-.929-.928c0-.5.429-.929.929-.929s.928.429.928.929zm4.146 0c0 .5-.428.928-.928.928a.946.946 0 01-.929-.928c0-.5.429-.929.929-.929s.928.429.928.929zm4.139 0c0 .5-.428.928-.928.928a.946.946 0 01-.929-.928c0-.5.429-.929.929-.929s.928.429.928.929zm4.147 0c0 .5-.429.928-.929.928a.945.945 0 01-.928-.928c0-.5.428-.929.928-.929s.929.429.929.929zm32.072 0c0 .5-.429.928-.929.928a.945.945 0 01-.928-.928c0-.5.428-.929.928-.929s.929.429.929.929zm4.28 0c0 .5-.429.928-.929.928a.946.946 0 01-.928-.928c0-.5.429-.929.928-.929.5 0 .929.429.929.929zm-32.213 0c0 .5-.429.928-.929.928a.945.945 0 01-.928-.928c0-.5.428-.929.928-.929s.929.429.929.929zm20.357 0c0 .5-.428.928-.928.928a.946.946 0 01-.929-.928c0-.5.429-.929.929-.929s.928.429.928.929z" fill="#263238"/><path d="M186.581 72.627c0 .5-.429.928-.929.928a.945.945 0 01-.928-.928c0-.5.428-.929.928-.929s.929.429.929.929zm4.141 0c0 .5-.429.928-.929.928a.945.945 0 01-.928-.928c0-.5.428-.929.928-.929s.929.429.929.929zm8.423 0c0 .5-.429.928-.928.928a.946.946 0 01-.929-.928c0-.5.429-.929.929-.929.499 0 .928.429.928.929zm18.933 0c0 .5-.428.928-.928.928a.946.946 0 01-.929-.928c0-.5.429-.929.929-.929s.928.429.928.929z" fill="#F5F5F5"/><path d="M194.871 72.627c0 .5-.428.928-.928.928a.946.946 0 01-.929-.928c0-.5.429-.929.929-.929s.928.429.928.929zm11.851 0c0 .5-.428.928-.928.928a.946.946 0 01-.929-.928c0-.5.429-.929.929-.929s.928.429.928.929z" fill="#E8505B"/><path d="M216.149 77.126c0-.5.428-.928.928-.928s.929.428.929.928-.429.929-.929.929c-.5.071-.928-.357-.928-.929zm-4.14 0c0-.5.429-.928.929-.928s.928.428.928.928-.428.929-.928.929c-.5.071-.929-.357-.929-.929zm-4.142 0c0-.5.429-.928.929-.928s.928.428.928.928-.428.929-.928.929c-.5.071-.929-.357-.929-.929zm-4.149 0c0-.5.429-.928.929-.928s.928.428.928.928-.428.929-.928.929c-.5.071-.929-.357-.929-.929zm-32.068 0c0-.5.428-.928.928-.928s.929.428.929.928-.429.929-.929.929c-.5.071-.928-.357-.928-.929zm-4.284 0c0-.5.429-.928.929-.928s.928.428.928.928-.428.929-.928.929c-.5.071-.929-.357-.929-.929zm32.209 0c0-.5.428-.928.928-.928s.929.428.929.928-.429.929-.929.929-.928-.357-.928-.929zm-20.356 0c0-.5.429-.928.929-.928s.928.428.928.928-.428.929-.928.929c-.5.071-.929-.357-.929-.929z" fill="#263238"/><path d="M195.44 77.126c0-.5.429-.928.928-.928.5 0 .929.428.929.928s-.429.929-.929.929c-.499.071-.928-.357-.928-.929zm-4.146 0c0-.5.428-.928.928-.928s.929.428.929.928-.429.929-.929.929c-.5.071-.928-.357-.928-.929zm-8.43 0c0-.5.428-.928.928-.928s.929.428.929.928-.429.929-.929.929c-.5.071-.928-.357-.928-.929zm-18.921 0c0-.5.428-.928.928-.928s.928.428.928.928-.428.929-.928.929c-.5.071-.928-.357-.928-.929z" fill="#F5F5F5"/><path d="M187.149 77.126c0-.5.429-.928.928-.928.5 0 .929.428.929.928s-.429.929-.929.929c-.499.071-.928-.357-.928-.929zm-11.855 0c0-.5.428-.928.928-.928s.929.428.929.928-.429.929-.929.929c-.5.071-.928-.357-.928-.929z" fill="#E8505B"/><path d="M165.861 81.197c0 .5-.428.929-.928.929a.946.946 0 01-.929-.929c0-.5.429-.928.929-.928s.928.428.928.928zm3.144.929a.928.928 0 100-1.856.928.928 0 000 1.856zm4.212 0a.929.929 0 100-1.858.929.929 0 000 1.858zm5.075-.929c0 .5-.429.929-.929.929a.946.946 0 01-.928-.929c0-.5.429-.928.928-.928.5 0 .929.428.929.928zm31.144.929a.929.929 0 10-.001-1.857.929.929 0 00.001 1.857zm4.212 0a.928.928 0 100-1.856.928.928 0 000 1.856zm-31.217-.929c0 .5-.428.929-.928.929a.946.946 0 01-.929-.929c0-.5.429-.928.929-.928s.928.428.928.928zm20.358 0c0 .5-.429.929-.929.929a.945.945 0 01-.928-.929c0-.5.428-.928.928-.928s.929.428.929.928z" fill="#263238"/><path d="M185.652 82.126a.929.929 0 100-1.858.929.929 0 000 1.858zm5.07-.929c0 .5-.428.929-.928.929a.946.946 0 01-.929-.929c0-.5.429-.928.929-.928s.928.428.928.928zm8.423 0c0 .5-.428.929-.928.929a.946.946 0 01-.929-.929c0-.5.429-.928.929-.928s.928.428.928.928zm18.934 0c0 .5-.429.929-.929.929a.945.945 0 01-.928-.929c0-.5.428-.928.928-.928s.929.428.929.928z" fill="#F5F5F5"/><path d="M194.872 81.197c0 .5-.429.929-.929.929a.945.945 0 01-.928-.929c0-.5.428-.928.928-.928s.929.428.929.928zm10.922.929a.929.929 0 100-1.858.929.929 0 000 1.858z" fill="#E8505B"/><path d="M222.422 92.34h-83.136v20.641h83.136V92.339z" fill="#8BA9F4"/><path d="M165.644 97.91c0 .5-.429.929-.929.929a.945.945 0 01-.928-.929c0-.5.428-.928.928-.928s.929.357.929.928zm4.146 0c0 .5-.428.929-.928.929a.946.946 0 01-.929-.929c0-.5.429-.928.929-.928s.928.357.928.928zm4.142 0c0 .5-.429.929-.929.929a.945.945 0 01-.928-.929c0-.5.428-.928.928-.928s.929.357.929.928zm4.142 0c0 .5-.429.929-.929.929a.945.945 0 01-.928-.929c0-.5.428-.928.928-.928s.929.357.929.928zm32.135 0c0 .5-.428.929-.928.929a.946.946 0 01-.929-.929c0-.5.429-.928.929-.928s.928.357.928.928zm4.219 0c0 .5-.428.929-.928.929a.946.946 0 01-.929-.929c0-.5.429-.928.929-.928s.928.357.928.928zm-32.215 0c0 .5-.429.929-.929.929a.945.945 0 01-.928-.929c0-.5.428-.928.928-.928s.929.357.929.928zm20.359 0c0 .5-.429.929-.928.929a.946.946 0 01-.929-.929c0-.5.429-.928.929-.928.499 0 .928.357.928.928z" fill="#263238"/><path d="M186.362 97.91c0 .5-.429.929-.929.929a.945.945 0 01-.928-.929c0-.5.428-.928.928-.928s.929.357.929.928zm4.134 0c0 .5-.428.929-.928.929a.946.946 0 01-.929-.929c0-.5.429-.928.929-.928s.928.357.928.928zm8.43 0c0 .5-.428.929-.928.929a.946.946 0 01-.929-.929c0-.5.429-.928.929-.928s.928.357.928.928zm18.933 0c0 .5-.428.929-.928.929a.946.946 0 01-.929-.929c0-.5.429-.928.929-.928s.928.357.928.928z" fill="#F5F5F5"/><path d="M194.651 97.91c0 .5-.429.929-.929.929a.945.945 0 01-.928-.929c0-.5.428-.928.928-.928s.929.357.929.928zm11.846 0c0 .5-.428.929-.928.929a.946.946 0 01-.929-.929c0-.5.429-.928.929-.928s.928.357.928.928z" fill="#E8505B"/><path d="M216.003 102.41c0-.5.429-.929.929-.929s.928.429.928.929-.428.928-.928.928c-.572 0-.929-.428-.929-.928zm-3.221.928a.928.928 0 10.002-1.856.928.928 0 00-.002 1.856zm-5.143-.928c0-.5.428-.929.928-.929s.929.429.929.929-.429.928-.929.928a.945.945 0 01-.928-.928zm-4.139 0c0-.5.428-.929.928-.929s.929.429.929.929-.429.928-.929.928a.945.945 0 01-.928-.928zm-32.069 0c0-.5.429-.929.929-.929.499 0 .928.429.928.929s-.429.928-.928.928a.945.945 0 01-.929-.928zm-4.22 0c0-.5.429-.929.929-.929s.928.429.928.929-.428.928-.928.928c-.572 0-.929-.428-.929-.928zm33.149.928a.928.928 0 10.002-1.856.928.928 0 00-.002 1.856zm-21.366-.928c0-.5.429-.929.929-.929.499 0 .928.429.928.929s-.429.928-.928.928a.945.945 0 01-.929-.928z" fill="#263238"/><path d="M195.219 102.41c0-.5.429-.929.929-.929s.928.429.928.929-.428.928-.928.928a.945.945 0 01-.929-.928zm-4.15 0c0-.5.429-.929.929-.929s.928.429.928.929-.428.928-.928.928a.945.945 0 01-.929-.928zm-7.427.928a.928.928 0 10.002-1.856.928.928 0 00-.002 1.856zm-19.926-.928c0-.5.429-.929.929-.929.499 0 .928.429.928.929s-.429.928-.928.928a.945.945 0 01-.929-.928z" fill="#F5F5F5"/><path d="M186.931 102.41c0-.5.428-.929.928-.929s.929.429.929.929-.429.928-.929.928a.945.945 0 01-.928-.928zm-11.854 0c0-.5.429-.929.929-.929s.928.429.928.929-.428.928-.928.928a.945.945 0 01-.929-.928z" fill="#E8505B"/><path d="M165.644 106.409c0 .5-.428.929-.928.929a.946.946 0 01-.929-.929c0-.499.429-.928.929-.928s.928.429.928.928zm4.147 0c0 .5-.429.929-.929.929a.945.945 0 01-.928-.929c0-.499.428-.928.928-.928s.929.429.929.928zm4.141 0c0 .5-.429.929-.928.929a.946.946 0 01-.929-.929c0-.499.429-.928.929-.928.499 0 .928.429.928.928zm4.142 0c0 .5-.428.929-.928.929a.946.946 0 01-.929-.929c0-.499.429-.928.929-.928s.928.429.928.928zm32.136 0c0 .5-.429.929-.929.929a.945.945 0 01-.928-.929c0-.499.428-.928.928-.928s.929.429.929.928zm4.219 0c0 .5-.429.929-.929.929a.945.945 0 01-.928-.929c0-.499.428-.928.928-.928s.929.429.929.928zm-32.216 0c0 .5-.428.929-.928.929a.946.946 0 01-.929-.929c0-.499.429-.928.929-.928s.928.429.928.928zm20.36 0c0 .5-.429.929-.929.929a.945.945 0 01-.928-.929c0-.499.428-.928.928-.928s.929.429.929.928z" fill="#263238"/><path d="M186.362 106.409c0 .5-.428.929-.928.929a.946.946 0 01-.929-.929c0-.499.429-.928.929-.928s.928.429.928.928zm4.135 0c0 .5-.429.929-.929.929a.945.945 0 01-.928-.929c0-.499.428-.928.928-.928s.929.429.929.928zm8.43 0c0 .5-.429.929-.929.929a.945.945 0 01-.928-.929c0-.499.428-.928.928-.928s.929.429.929.928zm18.933 0c0 .5-.429.929-.929.929a.945.945 0 01-.928-.929c0-.499.428-.928.928-.928s.929.429.929.928z" fill="#F5F5F5"/><path d="M194.651 106.409c0 .5-.429.929-.929.929a.945.945 0 01-.928-.929c0-.499.428-.928.928-.928s.929.429.929.928zm11.847 0c0 .5-.429.929-.929.929a.945.945 0 01-.928-.929c0-.499.428-.928.928-.928s.929.429.929.928z" fill="#E8505B"/><path d="M159.353 96.553h-16.355v2.5h16.355v-2.5zm0 4.357h-16.355v2.5h16.355v-2.5zm0 4.499h-16.355v2.5h16.355v-2.5z" fill="#EFF4FF"/><path d="M222.422 117.766h-83.136v20.641h83.136v-20.641z" fill="#8BA9F4"/><path d="M159.353 122.051h-16.355v2.5h16.355v-2.5zm0 4.285h-16.355v2.5h16.355v-2.5zm0 4.5h-16.355v2.5h16.355v-2.5z" fill="#EFF4FF"/><path d="M165.285 123.337c0 .5-.429.928-.929.928a.945.945 0 01-.928-.928c0-.5.428-.929.928-.929.571 0 .929.429.929.929zm4.212 0c0 .5-.429.928-.929.928a.945.945 0 01-.928-.928c0-.5.428-.929.928-.929s.929.429.929.929zm4.144 0c0 .5-.429.928-.929.928a.945.945 0 01-.928-.928c0-.5.428-.929.928-.929s.929.429.929.929zm4.141 0c0 .5-.429.928-.929.928a.945.945 0 01-.928-.928c0-.5.429-.929.928-.929.5 0 .929.429.929.929zm32.072 0c0 .5-.429.928-.929.928a.945.945 0 01-.928-.928c0-.5.428-.929.928-.929s.929.429.929.929zm4.215 0c0 .5-.429.928-.929.928a.945.945 0 01-.928-.928c0-.5.428-.929.928-.929.572 0 .929.429.929.929zm-32.142 0c0 .5-.429.928-.929.928a.945.945 0 01-.928-.928c0-.5.428-.929.928-.929s.929.429.929.929zm20.359 0c0 .5-.428.928-.928.928a.945.945 0 01-.929-.928c0-.5.429-.929.929-.929s.928.429.928.929z" fill="#263238"/><path d="M186.073 123.337c0 .5-.428.928-.928.928a.945.945 0 01-.929-.928c0-.5.429-.929.929-.929s.928.429.928.929zm4.143 0c0 .5-.429.928-.929.928a.945.945 0 01-.928-.928c0-.5.428-.929.928-.929s.929.429.929.929zm8.351 0c0 .5-.429.928-.929.928a.945.945 0 01-.928-.928c0-.5.428-.929.928-.929.571 0 .929.429.929.929zm19.001 0c0 .5-.428.928-.928.928a.945.945 0 01-.929-.928c0-.5.429-.929.929-.929s.928.429.928.929z" fill="#F5F5F5"/><path d="M194.351 123.337c0 .5-.428.928-.928.928a.945.945 0 01-.929-.928c0-.5.429-.929.929-.929s.928.429.928.929zm11.857 0c0 .5-.428.928-.928.928a.945.945 0 01-.929-.928c0-.5.429-.929.929-.929s.928.429.928.929z" fill="#E8505B"/><path d="M215.635 127.907c0-.499.429-.928.929-.928s.928.429.928.928c0 .5-.428.929-.928.929a.946.946 0 01-.929-.929zm-4.145 0c0-.499.429-.928.929-.928s.928.429.928.928c0 .5-.428.929-.928.929a.946.946 0 01-.929-.929zm-4.131 0c0-.499.428-.928.928-.928s.929.429.929.928c0 .5-.429.929-.929.929a.945.945 0 01-.928-.929zm-4.153 0c0-.499.428-.928.928-.928s.929.429.929.928c0 .5-.429.929-.929.929a.945.945 0 01-.928-.929zm-32.065 0c0-.499.428-.928.928-.928s.929.429.929.928c0 .5-.429.929-.929.929-.571 0-.928-.429-.928-.929zm-4.283 0c0-.499.428-.928.928-.928s.929.429.929.928c0 .5-.429.929-.929.929a.945.945 0 01-.928-.929zm32.21 0c0-.499.429-.928.929-.928s.928.429.928.928c0 .5-.428.929-.928.929a.946.946 0 01-.929-.929zm-20.355 0c0-.499.428-.928.928-.928s.929.429.929.928c0 .5-.429.929-.929.929a.945.945 0 01-.928-.929z" fill="#263238"/><path d="M194.921 127.907c0-.499.429-.928.929-.928s.928.429.928.928c0 .5-.428.929-.928.929a.946.946 0 01-.929-.929zm-4.137 0c0-.499.428-.928.928-.928s.929.429.929.928c0 .5-.429.929-.929.929a.945.945 0 01-.928-.929zm-8.431 0c0-.499.428-.928.928-.928s.929.429.929.928c0 .5-.429.929-.929.929a.945.945 0 01-.928-.929zm-18.926 0c0-.499.429-.928.929-.928.499 0 .928.429.928.928 0 .5-.429.929-.928.929a.946.946 0 01-.929-.929z" fill="#F5F5F5"/><path d="M186.642 127.907c0-.499.428-.928.928-.928s.929.429.929.928c0 .5-.429.929-.929.929a.945.945 0 01-.928-.929zm-11.863 0c0-.499.429-.928.929-.928s.928.429.928.928c0 .5-.428.929-.928.929a.946.946 0 01-.929-.929z" fill="#E8505B"/><path d="M165.284 131.907c0 .5-.429.929-.928.929a.946.946 0 01-.929-.929c0-.499.429-.928.929-.928.571 0 .928.429.928.928zm4.212 0c0 .5-.428.929-.928.929a.946.946 0 01-.929-.929c0-.499.429-.928.929-.928s.928.429.928.928zm4.145 0c0 .5-.429.929-.929.929a.945.945 0 01-.928-.929c0-.499.428-.928.928-.928s.929.429.929.928zm4.14 0c0 .5-.428.929-.928.929a.946.946 0 01-.929-.929c0-.499.429-.928.929-.928s.928.429.928.928zm32.072 0c0 .5-.428.929-.928.929a.946.946 0 01-.929-.929c0-.499.429-.928.929-.928s.928.429.928.928zm4.216 0c0 .5-.428.929-.928.929a.946.946 0 01-.929-.929c0-.499.429-.928.929-.928.571 0 .928.429.928.928zm-32.143 0c0 .5-.428.929-.928.929a.946.946 0 01-.929-.929c0-.499.429-.928.929-.928s.928.429.928.928zm20.361 0c0 .5-.429.929-.929.929a.945.945 0 01-.928-.929c0-.499.428-.928.928-.928s.929.429.929.928z" fill="#263238"/><path d="M186.073 131.907c0 .5-.429.929-.929.929a.945.945 0 01-.928-.929c0-.499.428-.928.928-.928s.929.429.929.928zm4.142 0c0 .5-.428.929-.928.929a.946.946 0 01-.929-.929c0-.499.429-.928.929-.928s.928.429.928.928zm8.352 0c0 .5-.429.929-.929.929a.945.945 0 01-.928-.929c0-.499.428-.928.928-.928.572 0 .929.429.929.928zm19 0c0 .5-.428.929-.928.929a.946.946 0 01-.929-.929c0-.499.429-.928.929-.928s.928.429.928.928z" fill="#F5F5F5"/><path d="M194.352 131.907c0 .5-.429.929-.929.929a.945.945 0 01-.928-.929c0-.499.428-.928.928-.928s.929.429.929.928zm11.856 0c0 .5-.429.929-.929.929a.945.945 0 01-.928-.929c0-.499.428-.928.928-.928s.929.429.929.928z" fill="#E8505B"/><path d="M234.919 87.483H222.42V66.84h12.499v20.642zm0 25.283H222.42v-20.57l12.499-.071v20.641zm0 25.641H222.42v-20.641h12.499v20.641z" fill="#D4E2FF"/><path d="M159.929 54.628h-16.356v2.5h16.356v-2.5z" fill="#263238"/><path d="M234.923 62.342l-12.499.07V41.63l12.499-.072v20.785z" fill="#D4E2FF"/><path d="M222.992 41.557h-83.136V62.2h83.136V41.557z" fill="#8BA9F4"/><path d="M159.928 45.843h-16.356v2.5h16.356v-2.5zm0 4.357h-16.356v2.5h16.356v-2.5z" fill="#EFF4FF"/><path d="M166.439 47.343c0 .5-.428.928-.928.928a.946.946 0 01-.929-.928c0-.5.429-.929.929-.929s.928.429.928.929zm4.139 0c0 .5-.429.928-.929.928a.945.945 0 01-.928-.928c0-.5.428-.929.928-.929s.929.429.929.929zm4.142 0c0 .5-.429.928-.928.928a.946.946 0 01-.929-.928c0-.5.429-.929.929-.929.499 0 .928.429.928.929zm4.142 0c0 .5-.429.928-.929.928a.945.945 0 01-.928-.928c0-.5.428-.929.928-.929s.929.429.929.929zm32.142 0c0 .5-.428.928-.928.928a.946.946 0 01-.929-.928c0-.5.429-.929.929-.929s.928.429.928.929zm4.217 0c0 .5-.428.928-.928.928a.946.946 0 01-.929-.928c0-.5.429-.929.929-.929s.928.429.928.929zm-32.217 0c0 .5-.429.928-.929.928a.945.945 0 01-.928-.928c0-.5.428-.929.928-.929s.929.429.929.929zm20.356 0c0 .5-.428.928-.928.928a.946.946 0 01-.929-.928c0-.5.429-.929.929-.929s.928.429.928.929z" fill="#263238"/><path d="M187.147 47.343c0 .5-.429.928-.928.928a.946.946 0 01-.929-.928c0-.5.429-.929.929-.929.499 0 .928.429.928.929zm4.15 0c0 .5-.429.928-.929.928a.945.945 0 01-.928-.928c0-.5.428-.929.928-.929s.929.429.929.929zm8.42 0c0 .5-.429.928-.929.928a.945.945 0 01-.928-.928c0-.5.428-.929.928-.929s.929.429.929.929zm18.928 0c0 .5-.428.928-.928.928a.946.946 0 01-.929-.928c0-.5.429-.929.929-.929s.928.429.928.929z" fill="#F5F5F5"/><path d="M195.433 47.343c0 .5-.428.928-.928.928a.946.946 0 01-.929-.928c0-.5.429-.929.929-.929s.928.429.928.929zm11.851 0c0 .5-.428.928-.928.928a.946.946 0 01-.929-.928c0-.5.429-.929.929-.929.571 0 .928.429.928.929z" fill="#E8505B"/><path d="M216.788 51.914c0-.5.429-.929.929-.929s.928.429.928.929-.428.928-.928.928a.946.946 0 01-.929-.928zm-3.218.928a.929.929 0 10-.001-1.857.929.929 0 00.001 1.857zm-5.063-.928c0-.5.429-.929.929-.929s.928.429.928.929-.428.928-.928.928a.946.946 0 01-.929-.928zm-4.149 0c0-.5.428-.929.928-.929s.929.429.929.929-.429.928-.929.928a.945.945 0 01-.928-.928zm-32.133 0c0-.5.429-.929.929-.929s.928.429.928.929-.428.928-.928.928a.946.946 0 01-.929-.928zm-4.219 0c0-.5.428-.929.928-.929s.929.429.929.929-.429.928-.929.928a.945.945 0 01-.928-.928zm32.218 0c0-.5.428-.929.928-.929s.929.429.929.929-.429.928-.929.928a.945.945 0 01-.928-.928zm-19.436.928a.929.929 0 10-.001-1.857.929.929 0 00.001 1.857z" fill="#263238"/><path d="M197.003 52.842a.928.928 0 100-1.856.928.928 0 000 1.856zm-4.14 0a.929.929 0 100-1.857.929.929 0 000 1.857zm-9.35-.928c0-.5.428-.929.928-.929s.929.429.929.929-.429.928-.929.928a.945.945 0 01-.928-.928zm-18.002.928a.928.928 0 100-1.856.928.928 0 000 1.856z" fill="#F5F5F5"/><path d="M187.789 51.914c0-.5.429-.929.929-.929s.928.429.928.929-.428.928-.928.928a.946.946 0 01-.929-.928zm-11.925 0c0-.5.428-.929.928-.929s.929.429.929.929-.429.928-.929.928a.945.945 0 01-.928-.928z" fill="#E8505B"/><path d="M166.439 55.913c0 .5-.428.929-.928.929a.946.946 0 01-.929-.929c0-.5.429-.928.929-.928s.928.428.928.928zm4.139 0c0 .5-.429.929-.929.929a.945.945 0 01-.928-.929c0-.5.428-.928.928-.928s.929.428.929.928zm4.142 0c0 .5-.429.929-.929.929a.945.945 0 01-.928-.929c0-.5.428-.928.928-.928s.929.428.929.928zm4.142 0c0 .5-.429.929-.929.929a.945.945 0 01-.928-.929c0-.5.428-.928.928-.928s.929.428.929.928zm32.142 0c0 .5-.429.929-.929.929a.945.945 0 01-.928-.929c0-.5.428-.928.928-.928s.929.428.929.928zm4.217 0c0 .5-.429.929-.929.929a.945.945 0 01-.928-.929c0-.5.428-.928.928-.928s.929.428.929.928zm-32.218 0c0 .5-.428.929-.928.929a.946.946 0 01-.929-.929c0-.5.429-.928.929-.928s.928.428.928.928zm20.357 0c0 .5-.429.929-.929.929a.945.945 0 01-.928-.929c0-.5.428-.928.928-.928s.929.428.929.928z" fill="#263238"/><path d="M187.147 55.913c0 .5-.429.929-.929.929a.945.945 0 01-.928-.929c0-.5.428-.928.928-.928s.929.428.929.928zm4.149 0c0 .5-.428.929-.928.929a.946.946 0 01-.929-.929c0-.5.429-.928.929-.928s.928.428.928.928zm8.42 0c0 .5-.428.929-.928.929a.946.946 0 01-.929-.929c0-.5.429-.928.929-.928s.928.428.928.928zm18.929 0c0 .5-.428.929-.928.929a.946.946 0 01-.929-.929c0-.5.429-.928.929-.928s.928.428.928.928z" fill="#F5F5F5"/><path d="M195.433 55.913c0 .5-.428.929-.928.929a.946.946 0 01-.929-.929c0-.5.429-.928.929-.928s.928.428.928.928zm11.851 0c0 .5-.428.929-.928.929a.946.946 0 01-.929-.929c0-.5.429-.928.929-.928.571 0 .928.428.928.928z" fill="#E8505B"/><path d="M234.201 164.191l-12.499.071v-20.641l12.499-.071v20.641z" fill="#D4E2FF"/><path d="M222.28 143.622h-83.136v20.641h83.136v-20.641z" fill="#8BA9F4"/><path d="M159.14 147.835h-16.356v2.5h16.356v-2.5zm0 4.357h-16.356v2.499h16.356v-2.499z" fill="#EFF4FF"/><path d="M165.627 149.335c0 .5-.429.928-.928.928a.945.945 0 01-.929-.928c0-.5.429-.929.929-.929.499 0 .928.429.928.929zm4.154 0c0 .5-.429.928-.929.928a.945.945 0 01-.928-.928c0-.5.428-.929.928-.929s.929.429.929.929zm4.134 0c0 .5-.428.928-.928.928a.945.945 0 01-.929-.928c0-.5.429-.929.929-.929s.928.429.928.929zm4.142 0c0 .5-.428.928-.928.928a.945.945 0 01-.929-.928c0-.5.429-.929.929-.929s.928.429.928.929zm32.142 0c0 .5-.428.928-.928.928a.945.945 0 01-.929-.928c0-.5.429-.929.929-.929s.928.429.928.929zm4.218 0c0 .5-.429.928-.929.928a.945.945 0 01-.928-.928c0-.5.428-.929.928-.929s.929.429.929.929zm-32.216 0c0 .5-.429.928-.929.928a.945.945 0 01-.928-.928c0-.5.428-.929.928-.929s.929.429.929.929zm20.355 0c0 .5-.429.928-.929.928a.945.945 0 01-.928-.928c0-.5.428-.929.928-.929s.929.429.929.929z" fill="#263238"/><path d="M186.343 149.335c0 .5-.429.928-.929.928a.945.945 0 01-.928-.928c0-.5.428-.929.928-.929.571 0 .929.429.929.929zm4.142 0c0 .5-.428.928-.928.928a.945.945 0 01-.929-.928c0-.5.429-.929.929-.929.571 0 .928.429.928.929zm8.434 0c0 .5-.428.928-.928.928a.945.945 0 01-.929-.928c0-.5.429-.929.929-.929s.928.429.928.929zm18.929 0c0 .5-.428.928-.928.928a.945.945 0 01-.929-.928c0-.5.429-.929.929-.929s.928.429.928.929z" fill="#F5F5F5"/><path d="M194.631 149.335c0 .5-.428.928-.928.928a.945.945 0 01-.929-.928c0-.5.429-.929.929-.929.571 0 .928.429.928.929zm11.927 0c0 .5-.428.928-.928.928a.945.945 0 01-.929-.928c0-.5.429-.929.929-.929s.928.429.928.929z" fill="#E8505B"/><path d="M215.991 153.906c0-.5.429-.929.928-.929.5 0 .929.429.929.929s-.429.928-.929.928a.945.945 0 01-.928-.928zm-4.152 0c0-.5.428-.929.928-.929s.929.429.929.929-.429.928-.929.928a.945.945 0 01-.928-.928zm-4.129 0c0-.5.428-.929.928-.929s.929.429.929.929-.429.928-.929.928a.945.945 0 01-.928-.928zm-4.149 0c0-.5.429-.929.928-.929.5 0 .929.429.929.929s-.429.928-.929.928a.945.945 0 01-.928-.928zm-32.142 0c0-.5.428-.929.928-.929s.929.429.929.929-.429.928-.929.928a.945.945 0 01-.928-.928zm-4.213 0c0-.5.428-.929.928-.929s.929.429.929.929-.429.928-.929.928a.945.945 0 01-.928-.928zm32.205 0c0-.5.429-.929.929-.929s.928.429.928.929-.428.928-.928.928a.945.945 0 01-.929-.928zm-20.349 0c0-.5.429-.929.929-.929s.928.429.928.929-.428.928-.928.928a.945.945 0 01-.929-.928z" fill="#263238"/><path d="M195.277 153.906c0-.5.429-.929.929-.929.499 0 .928.429.928.929s-.429.928-.928.928a.945.945 0 01-.929-.928zm-4.144 0c0-.5.429-.929.929-.929s.928.429.928.929-.428.928-.928.928a.945.945 0 01-.929-.928zm-8.43 0c0-.5.429-.929.929-.929.499 0 .928.429.928.929s-.429.928-.928.928a.945.945 0 01-.929-.928zm-18.933 0c0-.5.428-.928.928-.928s.929.428.929.928-.429.929-.929.929a.945.945 0 01-.928-.929z" fill="#F5F5F5"/><path d="M186.984 153.906c0-.5.428-.929.928-.929s.929.429.929.929-.429.928-.929.928a.945.945 0 01-.928-.928zm-11.853 0c0-.5.428-.929.928-.929s.929.429.929.929-.429.928-.929.928a.945.945 0 01-.928-.928z" fill="#E8505B"/><path d="M165.627 157.906c0 .5-.429.928-.929.928a.945.945 0 01-.928-.928c0-.5.428-.929.928-.929s.929.429.929.929zm4.153 0c0 .5-.428.928-.928.928a.945.945 0 01-.929-.928c0-.5.429-.929.929-.929s.928.429.928.929zm3.207.928a.929.929 0 10-.001-1.857.929.929 0 00.001 1.857zm5.07-.928c0 .5-.429.928-.929.928a.945.945 0 01-.928-.928c0-.5.428-.929.928-.929s.929.429.929.929zm31.214.928a.929.929 0 10-.001-1.857.929.929 0 00.001 1.857zm4.217 0a.928.928 0 100-1.856.928.928 0 000 1.856zm-31.288-.928c0 .5-.428.928-.928.928a.945.945 0 01-.929-.928c0-.5.429-.929.929-.929s.928.429.928.929zm20.356 0c0 .5-.429.928-.929.928a.945.945 0 01-.928-.928c0-.5.428-.929.928-.929s.929.429.929.929z" fill="#263238"/><path d="M186.342 157.906c0 .5-.428.928-.928.928a.945.945 0 01-.929-.928c0-.5.429-.929.929-.929.571 0 .928.429.928.929zm3.214.928a.929.929 0 100-1.858.929.929 0 000 1.858zm9.363-.928c0 .5-.429.928-.928.928a.945.945 0 01-.929-.928c0-.5.429-.929.929-.929.499 0 .928.429.928.929zm18.929 0c0 .5-.429.928-.929.928a.945.945 0 01-.928-.928c0-.5.429-.929.928-.929.5 0 .929.429.929.929z" fill="#F5F5F5"/><path d="M194.631 157.906c0 .5-.429.928-.929.928a.945.945 0 01-.928-.928c0-.5.428-.929.928-.929.572 0 .929.429.929.929zm10.933.928a.928.928 0 100-1.856.928.928 0 000 1.856z" fill="#E8505B"/><path d="M387.781 198.39v-95.63h-154.92" stroke="#7690FF" stroke-width="2" stroke-linecap="round" stroke-linejoin="round" stroke-dasharray="7 7"/><path d="M370.039 103.129H574.26V237.12h-60.247m-331.836-70.287v65.984h55.466" stroke="#7690FF" stroke-width="2" stroke-linecap="round" stroke-linejoin="round" stroke-dasharray="7 7"/><circle r="34.634" transform="matrix(-1 0 0 1 387.989 102.012)" fill="#fff" stroke="#8BA9F4" stroke-width="2"/><path d="M372.59 90.574c.507-2.03 1.64-3.87 3.245-5.25a10.152 10.152 0 016.609-2.449c1.817 0 3.557.469 5.093 1.364a8.88 8.88 0 016.001-2.324c4.808 0 8.737 3.833 8.894 8.602a8.918 8.918 0 016.508 8.573c0 4.906-3.991 8.898-8.898 8.898h-24.867c-4.907 0-8.898-3.992-8.898-8.898 0-3.934 2.609-7.39 6.313-8.516zm22.934 19.914v2.379h4.425a4.59 4.59 0 014.408-3.333 4.588 4.588 0 014.583 4.583 4.588 4.588 0 01-4.583 4.583 4.59 4.59 0 01-4.408-3.333h-5.674c-.69 0-1.25-.56-1.25-1.25v-3.629h2.499zm-9.166 5.054v-5.054h2.5v5.054a4.588 4.588 0 013.333 4.408 4.588 4.588 0 01-4.583 4.583 4.588 4.588 0 01-4.583-4.583 4.59 4.59 0 013.333-4.408zm-15.498-6.008a4.591 4.591 0 014.408 3.333h4.424v-2.379h2.5v3.629c0 .69-.56 1.25-1.25 1.25h-5.674a4.591 4.591 0 01-4.408 3.333 4.588 4.588 0 01-4.583-4.583 4.588 4.588 0 014.583-4.583z" fill="#8BA9F4"/><path d="M538.876 106.319v-9.672h4.232c1.896 0 3.624-1.208 4.159-3.027a27.63 27.63 0 012.244-5.42c.91-1.671.555-3.75-.791-5.095l-2.994-2.995 6.839-6.84 2.995 2.995c1.346 1.346 3.424 1.7 5.095.79a27.573 27.573 0 015.42-2.244c1.819-.535 3.027-2.261 3.027-4.158v-4.232h9.672v4.232c0 1.896 1.208 3.623 3.028 4.16a27.624 27.624 0 015.42 2.243c1.671.91 3.749.555 5.094-.79l2.995-2.994 6.84 6.84-2.995 2.994c-1.346 1.346-1.7 3.424-.791 5.095a27.542 27.542 0 012.244 5.42c.536 1.818 2.262 3.026 4.159 3.026H609v9.672h-4.232c-1.895 0-3.623 1.208-4.159 3.028a27.6 27.6 0 01-2.244 5.42c-.91 1.671-.555 3.749.79 5.094l2.995 2.995-6.84 6.84-2.995-2.995c-1.345-1.346-3.424-1.7-5.095-.79a27.525 27.525 0 01-5.42 2.244c-1.818.535-3.026 2.261-3.026 4.158v4.232h-9.672v-4.232c0-1.896-1.208-3.623-3.027-4.159a27.55 27.55 0 01-5.42-2.244c-1.671-.91-3.75-.555-5.095.79l-2.995 2.994-6.839-6.839 2.994-2.995c1.346-1.345 1.7-3.424.79-5.095a27.525 27.525 0 01-2.244-5.42c-.535-1.818-2.261-3.026-4.158-3.026h-4.232z" fill="#F39C20"/><path d="M573.938 119.619c-10.016 0-18.135-8.12-18.135-18.136s8.119-18.135 18.135-18.135c10.016 0 18.135 8.12 18.135 18.135 0 10.016-8.119 18.136-18.135 18.136z" fill="#fff"/><path d="M566.684 107.528c-.31 0-.619-.118-.855-.354l-4.836-4.836a1.207 1.207 0 010-1.709l4.836-4.836a1.207 1.207 0 011.709 0 1.207 1.207 0 010 1.71l-3.981 3.98 3.981 3.982a1.207 1.207 0 01-.854 2.063zm14.508 0a1.208 1.208 0 01-.855-2.063l3.982-3.982-3.982-3.981a1.209 1.209 0 011.71-1.71l4.836 4.836a1.208 1.208 0 010 1.71l-4.836 4.836a1.205 1.205 0 01-.855.354zm-9.672 2.418a1.21 1.21 0 01-1.156-1.565l4.836-15.718a1.21 1.21 0 012.312.71l-4.837 15.719a1.207 1.207 0 01-1.155.854z" fill="#F39C20"/><path d="M606.062 417.383H37.776v1.358h568.286v-1.358z" fill="#5B6BCA"/><path d="M222.342 398.257h348.092v-84.154h-56.421" stroke="#7690FF" stroke-width="2" stroke-linecap="round" stroke-linejoin="round" stroke-dasharray="7 7"/><path d="M182.76 374.044c6.148 10.189 14.229 20.027 23.891 29.337v10.541h-23.715s-7.554-4.041-22.485-15.46c0 0-4.919-32.851 22.309-24.418z" fill="#F49187"/><path d="M33.444 394.246c5.094-9.662 36.187-2.635 36.187-2.635l-22.134 22.311h99.778c-3.337-11.419-1.405-39.527-1.405-39.527v.527c1.405 11.243 7.378 17.216 7.378 17.216.351 5.798 7.027 6.149 7.027 6.149.527-5.27 1.756-9.487 3.337-12.649 6.5-13.351 18.972-11.77 18.972-11.77 1.406-7.027-6.148-8.783-6.148-8.783s-9.135-53.581-22.661-64.121c-13.526-10.54-35.309-15.811-35.309-15.811l-22.485-1.581s-44.092 8.784-52.875 23.892c-8.784 15.108-7.203 72.377-7.203 72.377-6.85 6.149-2.46 14.405-2.46 14.405z" fill="#6059C9"/><path opacity=".1" d="M69.631 391.612s-3.689-32.5 8.432-60.783c0 0-1.932 43.04 15.634 55.161 17.567 12.121 47.43 9.662 54.808 30.743l-65.875-.527-12.999-24.594zm76.415-16.514c1.405 11.243 7.378 17.216 7.378 17.216.351 5.797 7.026 6.148 7.026 6.148.527-5.27 1.757-9.486 3.338-12.648-3.513-3.338-7.378-8.608-9.837-16.162-4.568-15.459-1.757-32.148-1.406-33.378-3.864 14.405-5.797 31.973-6.499 38.824z" fill="#fff"/><path d="M98.264 402.854s-24.768-17.391-45.848-10.364c-21.08 7.027-19.324 21.432-12.473 24.243h52.525l5.796-13.879z" fill="#FFC7AE"/><path d="M91.59 284.626s5.094 28.986 20.552 29.162c13.351.176 10.365-17.567 9.311-21.959-.176-.703-.176-1.054-.176-1.054l5.446-21.257-29.512-15.634-.527 3.337-5.095 27.405z" fill="#FEB19E"/><path d="M121.453 291.829c-.176-.703-.176-1.054-.176-1.054l5.446-21.257-29.512-15.634-.527 3.337c-3.865 34.608 24.242 34.608 24.769 34.608z" fill="#FF856A"/><path d="M93.346 243.519s-3.865-7.379-4.919-17.216c-.878-8.96 1.581-11.068 5.446-11.068 0 0 1.932-10.189 6.675-13.702 4.743-3.514 23.891 1.581 31.269 5.973 7.378 4.392 12.648-7.73 16.161-7.203 3.338.527 4.041 9.838 1.406 14.054 0 0 6.148-3.513 7.202-7.027 1.054-3.513 8.08 2.811 5.445 15.986-2.459 13-8.431 14.757-8.431 14.757s-1.054 13.878-12.473 15.459c-11.242 1.581-41.106-1.054-41.106-1.054l-6.675-8.959z" fill="#1B1B43"/><path d="M145.87 238.6s-5.445 37.594-19.323 42.337c-13.878 4.743-25.472-10.013-27.228-13.878-1.757-3.865-2.46-12.297-2.46-12.297s-4.743 1.054-5.27-7.203c-.527-8.432 6.676-13.351 8.432 1.054 0 0 6.851-3.689 4.743-16.513 0 0 7.73 7.378 18.621 7.378 10.891 0 1.405-7.378 1.405-7.378s7.905 7.378 21.08 6.5z" fill="#FEB19E"/><path d="M59.443 411.813h90.116v4.919H59.443v-4.919z" fill="#D4E2FF"/><path d="M59.443 411.813h27.755v4.919H59.443v-4.919z" fill="#EAC8CE"/><path d="M74.725 411.989s7.906-11.945 19.85-11.77c9.135.176 9.311 5.797 9.311 5.797s5.973-.702 6.148 5.798H74.725v.175z" fill="#FF856A"/><path d="M186.8 411.287s-.351-6.676 2.46-7.379c2.986-.878 5.094 1.581 5.094 1.581s2.108-9.662 10.364-10.013c8.257-.351 23.013 8.081 13.878 15.811H186.8z" fill="#FEB19E"/><path d="M165.721 413.921c0 1.406 1.229 2.636 2.634 2.636h49.363c1.581 0 2.635-1.23 2.635-2.636 0-1.405-1.23-2.635-2.635-2.635h-49.363c-1.405 0-2.634 1.23-2.634 2.635z" fill="#D4E2FF"/><path d="M180.301 413.921c0 1.406 1.229 2.636 2.635 2.636h34.782c1.581 0 2.635-1.23 2.635-2.636 0-1.405-1.23-2.635-2.635-2.635h-34.782c-1.406 0-2.635 1.23-2.635 2.635z" fill="#D4E2FF"/><path d="M193.124 406.895l8.784-28.635c.351-1.23 1.756-1.933 2.986-1.581 1.405.351 2.108 1.932 1.757 3.338l-10.54 27.756c0-.176-1.757.878-2.987-.878z" fill="#525559"/><path d="M257.091 347.851l-30.446 69.069H83.679l.839-4.723 57.617-1.945 26.571-62.679 88.385.278z" fill="#EAC8CE"/><path d="M195.099 380.654c-1.162 2.042-.651 4.692 1.142 5.548 1.727 1.038 4.364.147 5.527-1.895 1.162-2.043.651-4.692-1.142-5.549-1.727-1.038-4.113-.261-5.527 1.896z" fill="#fff"/><path d="M118.583 255.769c1.321 0 2.391-1.285 2.391-2.869 0-1.585-1.07-2.869-2.391-2.869-1.32 0-2.39 1.284-2.39 2.869 0 1.584 1.07 2.869 2.39 2.869zm14.823.956c1.056 0 1.913-1.071 1.913-2.391s-.857-2.391-1.913-2.391-1.912 1.071-1.912 2.391.856 2.391 1.912 2.391zm-11.477-10.4c.082.973-3.04.744-5.997 1.259-3.204.543-5.477.887-5.477-.057 0-.973 2.437-2.318 5.614-2.919 3.779-.744 5.696-.171 5.86 1.717zm8.622.603c-.22.945 2.201 1.117 4.403 2.005 2.366.945 4.044 1.575 4.182.63.137-.945-1.513-2.606-3.852-3.609-2.752-1.203-4.32-.859-4.733.974zm-.014 22.691c-.864 1.092-1.891 2.102-3.241 2.785-1.351.655-3.026.737-4.431.328-1.432-.41-2.674-1.202-3.755-2.075-1.107-.874-2.053-1.884-2.917-2.976l.405-.437c1.108.792 2.161 1.611 3.296 2.321 1.107.71 2.242 1.365 3.403 1.72a5.802 5.802 0 003.539-.055c1.162-.437 2.242-1.201 3.323-2.02l.378.409z" fill="#1B1B43"/><path d="M128.236 259.113c.022.262.131.481.328.677.175.196.393.327.655.437.502.24 1.201.458 1.703 1.135.24.327.327.786.284 1.179a2.185 2.185 0 01-.459 1.048c-.502.589-1.222.808-1.856.829l-.065-.327c.568-.24 1.048-.568 1.332-.983.262-.414.305-.938.087-1.266-.24-.371-.786-.611-1.354-.982a2.261 2.261 0 01-.764-.743c-.174-.305-.305-.72-.174-1.091l.283.087z" fill="#D28572"/><path opacity=".2" d="M116.452 261.984a5.502 5.502 0 10-10.866-1.738 5.502 5.502 0 0010.866 1.738zm24.783-4.303c-.567 3.319-2.268 6.637-3.207 9.65a5.437 5.437 0 01-2.052-4.279c-.022-2.62 2.792-4.825 5.259-5.371z" fill="#FE5B52"/><circle cx="308.887" cy="240.946" r="16.735" fill="#F39C20"/><path d="M312.959 236.348h-8.145a.526.526 0 00-.525.525v8.146c0 .289.236.525.525.525h8.145c.29 0 .526-.236.526-.525v-8.146a.526.526 0 00-.526-.525zm-.525 8.145h-7.094v-1.97h1.051a.526.526 0 000-1.051h-1.051v-1.051h2.102a.526.526 0 000-1.051h-2.102v-1.971h7.094v7.094z" fill="#fff"/><path d="M318.346 239.58a.528.528 0 00-.526-.526h-1.681v-1.655h1.681a.528.528 0 00.526-.526.527.527 0 00-.526-.525h-1.681v-1.13c0-.841-.683-1.524-1.524-1.524h-1.13v-1.682a.526.526 0 00-1.051 0v1.682h-1.682v-1.682a.526.526 0 00-1.051 0v1.682h-1.681v-1.682a.526.526 0 00-1.051 0v1.682h-1.629v-1.682a.526.526 0 00-1.051 0v1.682h-1.13c-.841 0-1.524.683-1.524 1.524v1.13h-1.682a.526.526 0 000 1.051h1.682v1.681h-1.682a.526.526 0 000 1.051h1.682v1.682h-1.682a.526.526 0 000 1.051h1.682v1.629h-1.682a.526.526 0 000 1.051h1.682v1.13c0 .841.683 1.524 1.524 1.524h1.13v1.681c0 .289.236.526.525.526a.528.528 0 00.526-.526v-1.681h1.681v1.681c0 .289.237.526.526.526a.527.527 0 00.525-.526v-1.681h1.682v1.681c0 .289.236.526.525.526a.528.528 0 00.526-.526v-1.681h1.629v1.681c0 .289.236.526.525.526a.528.528 0 00.526-.526v-1.681h1.13c.84 0 1.524-.683 1.524-1.524v-1.13h1.681a.527.527 0 00.526-.525.527.527 0 00-.526-.526h-1.681v-1.682h1.681a.527.527 0 00.526-.525.528.528 0 00-.526-.526h-1.681v-1.681h1.681v.026a.527.527 0 00.526-.525zm-3.232 7.094h-.026a.47.47 0 01-.473.473h-11.456a.47.47 0 01-.473-.473v-11.456a.47.47 0 01.473-.473h11.482a.47.47 0 01.473.473v11.456z" fill="#fff"/><circle cx="437.987" cy="240.946" r="16.735" fill="#FF7B54"/><circle cx="307.931" cy="313.625" r="16.735" fill="#F982FC"/><circle cx="437.031" cy="313.625" r="16.735" fill="#7690FF"/><path d="M418.987 259.446v23.905c0 .979-.715 1.763-1.608 1.763h-3.126c-.893 0-1.608-.784-1.608-1.763v-23.905c0-.98.715-1.764 1.608-1.764h3.126c.893.098 1.608.882 1.608 1.764z" fill="#fff"/><path d="M418.987 264.244v19.105c0 .98-.715 1.763-1.608 1.763h-3.126c-.893 0-1.608-.783-1.608-1.763v-19.105c0-.979.715-1.763 1.608-1.763h3.126c.893 0 1.608.784 1.608 1.763z" fill="url(#paint1_linear)"/><path d="M431.492 259.445v23.905c0 .98-.715 1.763-1.608 1.763h-3.126c-.893 0-1.608-.783-1.608-1.763v-23.905c0-.98.715-1.764 1.608-1.764h3.126c.893.098 1.608.882 1.608 1.764z" fill="#fff"/><path d="M431.492 275.021v8.328c0 .979-.715 1.763-1.608 1.763h-3.126c-.893 0-1.608-.784-1.608-1.763v-8.328c0-.98.715-1.763 1.608-1.763h3.126c.893.098 1.608.881 1.608 1.763z" fill="url(#paint2_linear)"/><path d="M406.907 270.761v12.092c0 1.423-.754 2.561-1.697 2.561h-3.3c-.942 0-1.697-1.138-1.697-2.561v-12.092c0-1.422.755-2.561 1.697-2.561h3.3c.943.143 1.697 1.281 1.697 2.561z" fill="url(#paint3_linear)"/><path d="M443.64 259.445v23.905c0 .98-.715 1.763-1.608 1.763h-3.126c-.893 0-1.608-.783-1.608-1.763v-23.905c0-.98.715-1.764 1.608-1.764h3.126c.893.098 1.608.882 1.608 1.764z" fill="#fff"/><path d="M443.64 267.478v15.97c0 .979-.715 1.763-1.608 1.763h-3.126c-.893 0-1.608-.784-1.608-1.763v-15.97c0-.979.715-1.763 1.608-1.763h3.126c.893 0 1.608.784 1.608 1.763z" fill="url(#paint4_linear)"/><path d="M470.023 258.364v23.499c0 1.441-.754 2.594-1.697 2.594h-3.3c-.943 0-1.697-1.153-1.697-2.594v-23.499c0-1.442.754-2.595 1.697-2.595h3.3c.943 0 1.697 1.153 1.697 2.595z" fill="url(#paint5_linear)"/><path d="M456.143 259.445v23.905c0 .98-.714 1.763-1.608 1.763h-3.126c-.893 0-1.607-.783-1.607-1.763v-23.905c0-.98.714-1.764 1.607-1.764h3.126c.894.098 1.608.882 1.608 1.764z" fill="#fff"/><path d="M456.143 263.364v19.987c0 .979-.714 1.763-1.608 1.763h-3.126c-.893 0-1.607-.784-1.607-1.763v-19.987c0-.979.714-1.763 1.607-1.763h3.126c.894 0 1.608.784 1.608 1.763z" fill="url(#paint6_linear)"/><rect x="428.946" y="236.941" width="18.082" height="10.049" rx="1" stroke="#fff" stroke-width="2" stroke-linecap="round" stroke-linejoin="round"/><path fill="#fff" d="M431.962 232.818h1.785v3.124h-1.785zm0 14.726h1.785v3.124h-1.785zm3.571-14.727h1.785v3.124h-1.785zm0 14.727h1.785v3.124h-1.785zm3.57-14.727h1.785v3.124h-1.785zm0 14.727h1.785v3.124h-1.785zm3.57-14.727h1.785v3.124h-1.785zm0 14.727h1.785v3.124h-1.785zm4.589 64.55h-2.025a8.641 8.641 0 00-.529-1.324l1.589-1.589a.641.641 0 000-.907l-2.827-2.827a.641.641 0 00-.906 0l-1.539 1.539a8.528 8.528 0 00-1.349-.577v-2.184a.643.643 0 00-.642-.642h-3.998a.642.642 0 00-.641.642v2.137c-.487.151-.96.346-1.414.582l-1.385-1.385a.64.64 0 00-.907 0l-2.827 2.827a.641.641 0 000 .906l1.396 1.396a8.554 8.554 0 00-.57 1.406h-2.014a.641.641 0 00-.641.641v3.998c0 .354.287.641.641.641h2.083c.152.453.341.893.566 1.314l-1.489 1.488a.645.645 0 000 .907l2.827 2.827c.251.25.657.25.907 0l1.538-1.538c.39.194.794.359 1.208.492v1.934c0 .354.287.641.641.641h3.998a.641.641 0 00.641-.641v-1.93a8.625 8.625 0 001.306-.538l1.594 1.594c.25.25.656.25.907 0l2.827-2.827a.64.64 0 000-.907l-1.584-1.583c.206-.397.381-.809.523-1.233h2.095a.641.641 0 00.641-.641v-3.998a.641.641 0 00-.641-.641zm-.641 3.998h-1.93a.641.641 0 00-.618.473 7.323 7.323 0 01-.775 1.825.641.641 0 00.097.781l1.473 1.473-1.921 1.92-1.481-1.481a.641.641 0 00-.778-.099 7.351 7.351 0 01-1.894.781.641.641 0 00-.482.621v1.771h-2.716v-1.775a.642.642 0 00-.481-.621 7.331 7.331 0 01-1.807-.735.64.64 0 00-.772.103l-1.421 1.421-1.921-1.92 1.381-1.381a.643.643 0 00.094-.788 7.316 7.316 0 01-.818-1.896.641.641 0 00-.618-.473h-1.918v-2.716h1.862a.64.64 0 00.623-.49 7.307 7.307 0 01.804-1.987.64.64 0 00-.1-.778l-1.282-1.282 1.921-1.921 1.273 1.274c.208.208.53.248.782.098a7.294 7.294 0 011.992-.819.64.64 0 00.487-.622v-1.983h2.716v2.02c0 .29.195.545.476.62.68.181 1.329.459 1.929.826a.641.641 0 00.788-.094l1.431-1.431 1.92 1.92-1.471 1.472a.64.64 0 00-.103.772c.343.599.599 1.244.761 1.915.07.288.328.49.624.49h1.873v2.716z"/><circle cx="437.023" cy="314.573" r="4.227" stroke="#fff" stroke-width="1.5"/><path d="M304.909 307.726h-1.777v3.397h1.777v-3.397z" fill="#fff"/><path d="M313.098 305.496h-13.296v17.862h16.817v-14.342l-3.521-3.52zm-4.887 15.328a3.198 3.198 0 11-.001-6.397 3.198 3.198 0 01.001 6.397zm4.17-8.964h-10.399v-4.87h10.399v4.87z" fill="#fff"/><path d="M310.192 317.625a1.981 1.981 0 11-3.962 0 1.981 1.981 0 013.962 0z" fill="#fff"/><defs><linearGradient id="paint0_linear" x1="419.233" y1="340.428" x2="462.851" y2="363.83" gradientUnits="userSpaceOnUse"><stop stop-color="#7690FF"/><stop offset="1" stop-color="#00A2F4"/><stop offset="1" stop-color="#00A2F4"/><stop offset="1" stop-color="#7690FF"/></linearGradient><linearGradient id="paint1_linear" x1="415.819" y1="285.654" x2="415.819" y2="263.459" gradientUnits="userSpaceOnUse"><stop stop-color="#F79239"/><stop offset="1" stop-color="#F7C759"/></linearGradient><linearGradient id="paint2_linear" x1="428.3" y1="286.659" x2="428.3" y2="273.335" gradientUnits="userSpaceOnUse"><stop stop-color="#3855E1"/><stop offset="1" stop-color="#5C7EF7"/></linearGradient><linearGradient id="paint3_linear" x1="403.539" y1="287.66" x2="403.539" y2="268.313" gradientUnits="userSpaceOnUse"><stop stop-color="#3855E1"/><stop offset="1" stop-color="#5C7EF7"/></linearGradient><linearGradient id="paint4_linear" x1="440.465" y1="285.655" x2="440.465" y2="263.46" gradientUnits="userSpaceOnUse"><stop stop-color="#F79239"/><stop offset="1" stop-color="#F7C759"/></linearGradient><linearGradient id="paint5_linear" x1="466.672" y1="285.111" x2="466.672" y2="252.451" gradientUnits="userSpaceOnUse"><stop stop-color="#F79239"/><stop offset="1" stop-color="#F7C759"/></linearGradient><linearGradient id="paint6_linear" x1="452.942" y1="285.907" x2="452.942" y2="262.479" gradientUnits="userSpaceOnUse"><stop stop-color="#3855E1"/><stop offset="1" stop-color="#5C7EF7"/></linearGradient><clipPath id="clip0"><path fill="#fff" transform="matrix(-1 0 0 1 221.582 200.303)" d="M0 0h189.544v216.429H0z"/></clipPath><clipPath id="clip1"><path fill="#fff" transform="matrix(-1 0 0 1 514.562 198.053)" d="M0 0h277.929v170.178H0z"/></clipPath><clipPath id="clip2"><path fill="#fff" transform="translate(268.244 259.594)" d="M0 0h72.679v28.89H0z"/></clipPath><clipPath id="clip3"><path fill="#fff" transform="translate(387.781 333.228)" d="M0 0h87.154v37.06H0z"/></clipPath><clipPath id="clip4"><path fill="#fff" transform="translate(398.771 340.428)" d="M0 0h70.102v23.628H0z"/></clipPath></defs></svg>